<?xml version="1.0" encoding="utf-8"?>
<!-- Generator: Adobe Illustrator 16.0.0, SVG Export Plug-In . SVG Version: 6.00 Build 0)  -->
<!DOCTYPE svg PUBLIC "-//W3C//DTD SVG 1.1//EN" "http://www.w3.org/Graphics/SVG/1.1/DTD/svg11.dtd">
<svg version="1.1" id="Layer_1" xmlns="http://www.w3.org/2000/svg" xmlns:xlink="http://www.w3.org/1999/xlink" x="0px" y="0px"
	 width="73.464px" height="79px" viewBox="0 0 73.464 79" enable-background="new 0 0 73.464 79" xml:space="preserve">
<g>
	<g>
		<path fill="#0053A0" d="M33.571,28.208l1.051-1.837L19.554,0H0l21.395,37.585c2.74-2.12,5.93-3.666,9.396-4.508l1.407-2.467
			L33.571,28.208z"/>
		<path fill="#0053A0" d="M38.06,32.387c5.236,0.275,10.045,2.15,13.955,5.159L73.464,0H53.826L36.688,29.989l-1.371,2.402
			c0.471-0.027,0.937-0.072,1.414-0.072C37.18,32.319,37.616,32.363,38.06,32.387z"/>
	</g>
	<path fill="#0053A0" d="M50.223,40.683c-2.444-1.97-5.328-3.404-8.476-4.159c-1.613-0.387-3.287-0.614-5.016-0.614
		c-1.783,0-3.507,0.242-5.166,0.652c-3.113,0.771-5.967,2.202-8.384,4.163c-4.871,3.954-7.995,9.981-7.995,16.729
		C15.187,69.335,24.851,79,36.731,79c11.88,0,21.545-9.665,21.545-21.545C58.276,50.681,55.127,44.636,50.223,40.683z
		 M36.731,73.614c-8.925,0-16.159-7.234-16.159-16.159s7.234-16.159,16.159-16.159c8.924,0,16.158,7.234,16.158,16.159
		S45.655,73.614,36.731,73.614z"/>
</g>
</svg>
