<?xml version="1.0" encoding="utf-8"?>
<!-- Generator: Adobe Illustrator 16.0.0, SVG Export Plug-In . SVG Version: 6.00 Build 0)  -->
<!DOCTYPE svg PUBLIC "-//W3C//DTD SVG 1.1//EN" "http://www.w3.org/Graphics/SVG/1.1/DTD/svg11.dtd">
<svg version="1.1" id="Layer_1" xmlns="http://www.w3.org/2000/svg" xmlns:xlink="http://www.w3.org/1999/xlink" x="0px" y="0px"
	 width="98.324px" height="84px" viewBox="0 0 98.324 84" enable-background="new 0 0 98.324 84" xml:space="preserve">
<g>
	<path fill="#0053A0" d="M80.043,62.204H31.018c-1.635,0-3.068-1.092-3.502-2.667L15.537,16.049L1.602,6.644
		c-1.663-1.122-2.103-3.38-0.979-5.042C1.743-0.06,3.998-0.502,5.665,0.623l14.129,9.535h74.897c1.163,0,2.259,0.558,2.94,1.5
		c0.684,0.942,0.875,2.155,0.512,3.261L83.495,59.701C83.008,61.194,81.613,62.204,80.043,62.204z M33.786,54.939h43.623
		l12.271-37.517H23.45L33.786,54.939z"/>
</g>
<g>
	<circle fill="#0053A0" cx="37.037" cy="75.519" r="8.482"/>
</g>
<g>
	<circle fill="#0053A0" cx="73.417" cy="75.519" r="8.483"/>
</g>
</svg>
