<?xml version="1.0" encoding="utf-8"?>
<!-- Generator: Adobe Illustrator 16.0.0, SVG Export Plug-In . SVG Version: 6.00 Build 0)  -->
<!DOCTYPE svg PUBLIC "-//W3C//DTD SVG 1.1//EN" "http://www.w3.org/Graphics/SVG/1.1/DTD/svg11.dtd">
<svg version="1.1" id="Layer_1" xmlns="http://www.w3.org/2000/svg" xmlns:xlink="http://www.w3.org/1999/xlink" x="0px" y="0px"
	 width="97.603px" height="96.177px" viewBox="0 0 97.603 96.177" enable-background="new 0 0 97.603 96.177" xml:space="preserve">
<g>
	<path fill="#0053A0" d="M87.299,6.089c1.839,0,3.04,1.421,3.04,1.421l0.012,0.018l0.008,0.013c0,0,1.837,1.845,0.891,4.2
		c0,0-2.984,6.394-18.24,21.949l1.896,49.99l-4.429,6.408L59.204,46.011c0,0-14.571,12.578-28.755,21.86
		c0,0,0.039,16.181-0.67,16.521l-2.25,2.059c0,0-0.767-0.019-1.774-1.624l-4.389-10.11c0,0-1.01-1.758-1.834-2.485
		c-0.648-0.891-2.308-2.051-2.308-2.051l-9.68-5.283c-1.501-1.146-1.456-1.913-1.456-1.913l2.252-2.056
		c0.076-0.127,0.691-0.179,1.646-0.179c4.186,0.001,14.868,0.994,14.868,0.994c10.528-13.289,24.362-26.667,24.362-26.667
		L6.342,19.874l6.786-3.836l49.602,6.405C79.598,8.634,86.233,6.247,86.233,6.247C86.607,6.136,86.964,6.088,87.299,6.089 M87.3,0
		C87.299,0,87.299,0,87.3,0c-0.943,0-1.888,0.139-2.806,0.412c-0.108,0.032-0.216,0.067-0.321,0.105
		c-0.748,0.27-7.53,2.918-23.252,15.553L13.907,9.999c-0.259-0.033-0.52-0.05-0.779-0.05c-1.046,0-2.078,0.27-2.996,0.788
		l-6.786,3.836c-2.077,1.174-3.276,3.452-3.069,5.829c0.207,2.376,1.782,4.413,4.03,5.21l33.821,11.993
		c-4.471,4.63-10.472,11.085-15.973,17.789c-3.594-0.302-9.235-0.732-12.168-0.732c-0.007,0-0.014,0-0.021,0
		c-1.402,0-4.086,0.009-5.999,2.015l-1.984,1.811c-1.172,1.07-1.88,2.557-1.973,4.142c-0.088,1.493,0.295,4.403,3.84,7.108
		c0.246,0.188,0.506,0.356,0.777,0.505l9.335,5.095c0.292,0.221,0.61,0.483,0.763,0.633c0.195,0.25,0.409,0.485,0.641,0.702
		c0.148,0.181,0.393,0.545,0.572,0.833l4.231,9.747c0.122,0.281,0.265,0.553,0.428,0.812c2.391,3.808,5.276,4.438,6.784,4.474
		c0.049,0.001,0.099,0.002,0.147,0.002c1.52,0,2.986-0.568,4.11-1.597l1.923-1.76c2.371-1.808,2.55-4.733,2.698-7.144
		c0.09-1.469,0.159-3.46,0.207-5.919c0.034-1.786,0.053-3.55,0.062-4.987c7.173-4.872,14.143-10.268,19.157-14.304l8.891,34.767
		c0.592,2.312,2.479,4.064,4.826,4.484c0.358,0.064,0.718,0.096,1.074,0.096c1.977,0,3.858-0.964,5.008-2.627l4.429-6.408
		c0.748-1.083,1.126-2.378,1.075-3.692l-1.797-47.386C93.175,21.548,96.43,15.036,96.767,14.315
		c0.047-0.101,0.091-0.202,0.133-0.306c1.613-4.016,0.229-8.064-1.928-10.451C93.505,1.834,90.726,0,87.3,0L87.3,0L87.3,0z"/>
</g>
</svg>
