<?xml version="1.0" encoding="utf-8"?>
<!-- Generator: Adobe Illustrator 16.0.0, SVG Export Plug-In . SVG Version: 6.00 Build 0)  -->
<!DOCTYPE svg PUBLIC "-//W3C//DTD SVG 1.1//EN" "http://www.w3.org/Graphics/SVG/1.1/DTD/svg11.dtd">
<svg version="1.1" id="Layer_1" xmlns="http://www.w3.org/2000/svg" xmlns:xlink="http://www.w3.org/1999/xlink" x="0px" y="0px"
	 width="80.923px" height="81px" viewBox="0 0 80.923 81" enable-background="new 0 0 80.923 81" xml:space="preserve">
<g>
	<path fill="#0053A0" d="M36.716,55.348l18.022-18.04c6.894,2.635,14.998,1.188,20.545-4.362c4.425-4.43,6.428-10.771,5.356-16.965
		c-0.11-0.629-0.412-1.194-0.848-1.629c-0.336-0.339-0.756-0.598-1.229-0.749c-1.079-0.343-2.26-0.053-3.061,0.749l-8.305,8.311
		l-8.101-0.816l-0.814-8.11l8.3-8.311c0.803-0.802,1.092-1.985,0.749-3.065c-0.152-0.474-0.411-0.895-0.749-1.232
		c-0.435-0.435-1-0.735-1.628-0.844C58.767-0.789,52.43,1.213,48.007,5.643c-5.547,5.552-6.991,13.667-4.356,20.565L25.63,44.248
		c-6.754-2.524-14.661-1.091-20.082,4.336C-1.85,55.99-1.85,68.041,5.55,75.446c7.396,7.406,19.438,7.405,26.837-0.001
		C37.806,70.02,39.237,62.106,36.716,55.348z M45.053,29.1l1.106-1.107l1.106-1.106c-0.521-0.985-0.928-2.013-1.233-3.065
		c-1.588-5.507-0.218-11.69,4.119-16.031c3.887-3.891,9.253-5.387,14.284-4.513l-9.321,9.33l1.211,12.013l12,1.209l9.32-9.33
		c0.874,5.038-0.622,10.408-4.509,14.298c-4.336,4.341-10.512,5.712-16.013,4.122c-1.052-0.302-2.076-0.71-3.062-1.23l-1.105,1.107
		l-1.108,1.107L35.332,52.438l-1.108,1.107l-1.108,1.113c0.517,0.993,0.909,2.03,1.203,3.089c1.481,5.358,0.131,11.338-4.078,15.55
		c-6.228,6.232-16.319,6.233-22.545,0c-6.227-6.231-6.225-16.333-0.001-22.565c4.209-4.213,10.184-5.568,15.538-4.086
		c1.058,0.293,2.093,0.689,3.086,1.207l1.109-1.111l1.107-1.107L45.053,29.1z"/>
	<path fill="#0053A0" d="M27.613,68.521l1.483-5.546l0.606-2.269c0.214-0.796,0.089-1.629-0.314-2.32
		c-0.128-0.221-0.285-0.428-0.47-0.613l-5.715-5.72c-0.185-0.186-0.392-0.341-0.61-0.469c-0.695-0.408-1.528-0.532-2.322-0.319
		l-2.262,0.607l-5.541,1.488c-1.05,0.281-1.867,1.099-2.146,2.148l-2.093,7.812c-0.279,1.048,0.02,2.167,0.787,2.936l5.712,5.72
		c0.768,0.768,1.888,1.066,2.932,0.785l7.809-2.091C26.516,70.388,27.335,69.57,27.613,68.521z M17.906,55.047l3.153-0.846
		l5.713,5.72l-0.846,3.155l-1.245,4.658l-7.805,2.094l-5.714-5.72l2.089-7.813L17.906,55.047z"/>
</g>
</svg>
