<?xml version="1.0" encoding="utf-8"?>
<!-- Generator: Adobe Illustrator 16.0.0, SVG Export Plug-In . SVG Version: 6.00 Build 0)  -->
<!DOCTYPE svg PUBLIC "-//W3C//DTD SVG 1.1//EN" "http://www.w3.org/Graphics/SVG/1.1/DTD/svg11.dtd">
<svg version="1.1" id="Layer_1" xmlns="http://www.w3.org/2000/svg" xmlns:xlink="http://www.w3.org/1999/xlink" x="0px" y="0px"
	 width="117.008px" height="77px" viewBox="0 0 117.008 77" enable-background="new 0 0 117.008 77" xml:space="preserve">
<g>
	<path fill="#0053A0" d="M60.007,55.188c-8.9,7.535-14.76,15.188-16.148,15.188h-0.237c-1.389,0-7.248-7.653-16.15-15.188
		c-8.901-7.53-20.848-14.94-20.848-28.562c0-6.026,4.697-20.003,19.643-20.003c16.088,0,13.496,9.881,17.475,9.881
		c3.978,0,1.386-9.881,17.476-9.881c14.943,0,19.641,13.977,19.641,20.003c0,1.456-0.161,2.827-0.416,4.148h6.718
		c0.192-1.332,0.322-2.703,0.322-4.148C87.48,15.887,79.132,0,61.216,0c-9.231,0-14.28,2.779-17.476,6.308
		C40.545,2.779,35.498,0,26.266,0C8.348,0,0,15.887,0,26.626C0,41.513,10.782,50.2,19.446,57.178
		c1.278,1.03,2.542,2.048,3.747,3.065c4.381,3.709,8.06,7.529,10.743,10.316C38.197,74.982,40.14,77,43.621,77h0.237
		c3.481,0,5.427-2.018,9.685-6.441c2.687-2.788,6.362-6.605,10.743-10.314c1.198-1.013,2.458-2.028,3.736-3.057
		c3.926-3.161,8.276-6.68,11.873-10.959h-9.161C67.272,49.434,63.42,52.303,60.007,55.188z"/>
	<path fill="#0053A0" d="M116.038,36.162L96.673,16.795c-0.646-0.647-1.494-0.97-2.341-0.97c-0.848,0-1.695,0.323-2.342,0.97
		c-1.294,1.293-1.294,3.389,0,4.683l13.71,13.712H86.158h-7.071H45.95c-1.829,0-3.312,1.483-3.312,3.312
		c0,1.829,1.482,3.312,3.312,3.312h29.008h8.144h22.603L91.992,55.525c-1.293,1.293-1.293,3.389,0,4.683
		c0.646,0.646,1.494,0.97,2.342,0.97c0.847,0,1.694-0.323,2.341-0.97l19.363-19.363C117.331,39.551,117.331,37.456,116.038,36.162z"
		/>
</g>
</svg>
