<?xml version="1.0" encoding="utf-8"?>
<!-- Generator: Adobe Illustrator 16.0.0, SVG Export Plug-In . SVG Version: 6.00 Build 0)  -->
<!DOCTYPE svg PUBLIC "-//W3C//DTD SVG 1.1//EN" "http://www.w3.org/Graphics/SVG/1.1/DTD/svg11.dtd">
<svg version="1.1" id="Layer_1" xmlns="http://www.w3.org/2000/svg" xmlns:xlink="http://www.w3.org/1999/xlink" x="0px" y="0px"
	 width="102.605px" height="83px" viewBox="0 0 102.605 83" enable-background="new 0 0 102.605 83" xml:space="preserve">
<g>
	<path fill="#0053A0" d="M21.001,24.048c0.764-0.978,5.012-6.121,10.331-6.248c10.306-0.244,7.726,7.407,14.104,7.409
		c5.495,0.006,5.033-6.127,1.969-8.395c-0.033-0.025,0.005-0.072,0.062-0.07c11.03,0.653,10.485,8.01,16.061,8.043
		c5.421,0.025,3.49-6.144,0.965-7.884c-0.038-0.023,0.011-0.066,0.074-0.062c4.863,0.371,12.58,3.729,16.025,6.835
		c0.889,0.403,0.898-0.57-0.112-1.433c0,0-11.611-11.041-28.951-11.295c-16.442-0.235-30.052,9.727-31.296,10.666
		c-0.063,0.048-0.098,0.216-0.098,0.216l0.603,2.25C20.738,24.08,20.921,24.15,21.001,24.048"/>
	<path fill="#0053A0" d="M29.53,13.707c-0.157,0.136,0.017,0.263,0.061,0.214c1.779-1.039,10.581-5.722,23.53-5.292
		c10.509,0.346,18.281,4.598,22.305,7.189c0.382,0.227,0.407-0.129,0.025-0.449c-0.277-0.287-5.745-5.423-11.405-7.579
		c-0.029-0.013-0.04-0.064-0.02-0.079c2.996-1.874,2.79-5.219-0.223-6.546c-3.002-1.314-11.312,2.461-14.271,3.826
		c-0.04,0.017-0.034-0.034,0.002-0.083c1.357-1.689,1.181-5.315-3.165-4.872C41.12,0.576,35.824,5.343,29.53,13.707"/>
</g>
<path fill="#0053A0" d="M7.526,23.692c0.985,0,2.281,0.882,2.539,2.436c0.262,1.556,3.424,19.964,3.632,20.948
	c0.206,0.983,0.621,1.505,1.45,2.281c0.831,0.78,5.602,5.651,6.067,6.067c0.268,0.237,0.84,0.56,1.278,0.56
	c0.331,0,0.588-0.183,0.588-0.715c0-0.777-0.31-1.036-0.624-1.556c-0.31-0.52-5.91-9.491-6.428-10.371
	c-0.52-0.88-1.038-1.711-1.038-2.644c0-0.933,0.935-3.163,3.162-3.163c1.455,0,2.23,0.882,2.697,1.452s10.422,12.29,12.082,14.052
	s6.638,7.88,6.638,13.065s0,9.801,0,10.632c0,0.827-0.364,1.606-1.452,1.606s-12.652,0-12.652,0c-1.349,0-1.97-0.623-1.97-1.814
	c0-1.195,0-4.047,0-5.133c0-1.089-0.312-1.61-1.193-2.646c-0.88-1.039-11.51-13.793-12.909-15.607
	c-1.401-1.814-2.334-3.06-2.854-7.933c-0.518-4.876-1.657-16.437-1.865-18.563S6.54,23.692,7.526,23.692 M7.526,19.032
	c-1.635,0-3.988,0.67-5.692,2.548c-1.361,1.499-1.997,3.46-1.798,5.521c0.161,1.632,1.34,13.596,1.872,18.601
	c0.617,5.796,1.905,7.836,3.797,10.286c1.505,1.955,12.232,14.817,13.047,15.777c0.029,0.034,0.057,0.068,0.085,0.098v4.666
	c0,3.812,2.726,6.471,6.629,6.471h12.652c3.483,0,6.109-2.692,6.109-6.263V66.105c0-7.641-7.096-15.4-7.903-16.259
	c-1.554-1.651-11.391-13.231-11.87-13.812c-1.713-2.095-3.833-3.159-6.301-3.159c-0.771,0-1.492,0.106-2.153,0.295
	c-0.655-3.801-1.226-7.125-1.34-7.808C14.06,21.754,10.992,19.032,7.526,19.032L7.526,19.032z"/>
<path fill="#0053A0" d="M95.081,23.692c0.985,0,3.061,0.829,2.854,2.955c-0.208,2.126-1.349,13.687-1.868,18.563
	c-0.52,4.874-1.452,6.119-2.852,7.933c-1.401,1.814-12.028,14.568-12.91,15.607c-0.882,1.035-1.192,1.557-1.192,2.646
	c0,1.086,0,3.938,0,5.133c0,1.191-0.623,1.814-1.971,1.814c0,0-11.562,0-12.652,0s-1.452-0.779-1.452-1.606
	c0-0.831,0-5.446,0-10.632s4.979-11.304,6.638-13.065c1.657-1.762,11.613-13.481,12.08-14.052c0.468-0.57,1.246-1.452,2.696-1.452
	c2.23,0,3.163,2.23,3.163,3.163c0,0.933-0.518,1.764-1.037,2.644s-6.118,9.852-6.43,10.371c-0.31,0.52-0.621,0.778-0.621,1.556
	c0,0.532,0.256,0.715,0.587,0.715c0.441,0,1.014-0.322,1.28-0.56c0.467-0.416,5.237-5.29,6.065-6.067
	c0.829-0.776,1.245-1.298,1.452-2.281c0.208-0.984,3.371-19.392,3.63-20.948C92.8,24.574,94.097,23.692,95.081,23.692
	 M95.081,19.032c-3.469,0-6.534,2.722-7.137,6.331c-0.111,0.683-0.682,4.007-1.335,7.808c-0.666-0.189-1.383-0.295-2.158-0.295
	c-2.464,0-4.584,1.064-6.301,3.163c-0.475,0.577-10.308,12.152-11.868,13.808c-0.81,0.858-7.903,8.618-7.903,16.259v10.632
	c0,3.57,2.627,6.263,6.11,6.263h12.652c3.902,0,6.629-2.659,6.629-6.471v-4.666c0.027-0.029,0.053-0.062,0.083-0.094
	c0.813-0.962,11.528-13.812,13.051-15.781c1.891-2.45,3.178-4.49,3.795-10.284c0.538-5.064,1.713-16.983,1.869-18.605
	c0.204-2.059-0.437-4.02-1.795-5.519C99.07,19.702,96.718,19.032,95.081,19.032L95.081,19.032z"/>
</svg>
