<?xml version="1.0" encoding="utf-8"?>
<!-- Generator: Adobe Illustrator 16.0.0, SVG Export Plug-In . SVG Version: 6.00 Build 0)  -->
<!DOCTYPE svg PUBLIC "-//W3C//DTD SVG 1.1//EN" "http://www.w3.org/Graphics/SVG/1.1/DTD/svg11.dtd">
<svg version="1.1" id="Layer_1" xmlns="http://www.w3.org/2000/svg" xmlns:xlink="http://www.w3.org/1999/xlink" x="0px" y="0px"
	 width="83px" height="83px" viewBox="0 0 83 83" enable-background="new 0 0 83 83" xml:space="preserve">
<g>
	<path fill="#0053A0" d="M50.558,26.942L33.384,44.116c-0.593,0.591-1.556,0.591-2.146,0c-0.595-0.593-0.595-1.557-0.002-2.148
		l17.174-17.173c0.593-0.593,1.554-0.593,2.148,0C51.148,25.387,51.148,26.348,50.558,26.942z"/>
	<path fill="#0053A0" d="M54.381,30.766L37.208,47.939c-0.594,0.594-1.555,0.594-2.146,0c-0.595-0.592-0.595-1.553,0-2.146
		L52.236,28.62c0.591-0.593,1.552-0.593,2.145,0C54.974,29.213,54.974,30.173,54.381,30.766z"/>
	<g>
		<path fill="#0053A0" d="M55.299,37.499l-11.359,11.36c-0.592,0.593-1.553,0.593-2.147-0.001c-0.591-0.592-0.591-1.555,0-2.146
			l11.359-11.36c0.592-0.592,1.557-0.592,2.147,0C55.892,35.945,55.892,36.907,55.299,37.499z"/>
	</g>
	<polygon fill="#0053A0" points="44.869,67.471 44.873,67.463 44.862,67.476 	"/>
	<path fill="#0053A0" d="M23.181,45.782c-0.593,0.591-0.593,1.553,0,2.146l4.244,4.243c0.593,0.593,1.552,0.593,2.146,0
		c0.593-0.593,0.593-1.555,0-2.147l-4.245-4.243C24.733,45.188,23.773,45.188,23.181,45.782z"/>
	<path fill="#0053A0" d="M30.83,53.43c-0.593,0.593-0.593,1.554,0,2.146l4.243,4.244c0.593,0.591,1.554,0.591,2.146,0
		c0.593-0.595,0.593-1.556,0.002-2.146l-4.245-4.244C32.384,52.836,31.423,52.836,30.83,53.43z"/>
	<path fill="#0053A0" d="M53.219,0.445L15.532,38.133L0.443,53.218c-0.591,0.595-0.591,1.554,0,2.146l3.59,3.589l2.168,2.169
		c0.306-0.399,0.628-0.79,0.992-1.154c0.364-0.366,0.755-0.687,1.156-0.992c4.39-3.341,10.674-3.017,14.682,0.992
		c4.011,4.007,4.335,10.293,0.996,14.686c-0.306,0.399-0.63,0.789-0.994,1.154c-0.364,0.364-0.755,0.688-1.152,0.992l2.168,2.168
		l3.588,3.588c0.593,0.592,1.552,0.592,2.145,0l15.081-15.08l0.013-0.013l37.68-37.681c0.595-0.593,0.595-1.554,0-2.146
		l-3.586-3.588l-2.168-2.168c-0.306,0.399-0.628,0.79-0.992,1.155c-0.366,0.365-0.755,0.688-1.156,0.991
		c-4.39,3.34-10.676,3.017-14.686-0.993c-4.007-4.008-4.333-10.293-0.992-14.683c0.306-0.4,0.628-0.79,0.994-1.155
		c0.364-0.364,0.753-0.687,1.154-0.991l-2.168-2.168l-3.59-3.589C54.772-0.148,53.812-0.148,53.219,0.445z M57.821,25.18
		c5.188,5.189,13.415,5.524,19.001,1.014l2.515,2.516L43.796,64.25l-3.169-3.171c-0.593-0.591-1.554-0.591-2.148,0.001
		c-0.591,0.593-0.591,1.554,0,2.146l3.17,3.17L28.71,79.336l-2.515-2.515c4.508-5.587,4.173-13.811-1.016-19
		c-5.188-5.188-13.416-5.523-18.998-1.014l-2.517-2.517l12.94-12.938l3.17,3.169c0.592,0.593,1.553,0.593,2.146,0
		c0.593-0.592,0.593-1.554,0-2.146l-3.169-3.17l35.54-35.54l2.515,2.516C52.299,11.764,52.634,19.993,57.821,25.18z"/>
</g>
</svg>
