<?xml version="1.0" encoding="utf-8"?>
<!-- Generator: Adobe Illustrator 16.0.0, SVG Export Plug-In . SVG Version: 6.00 Build 0)  -->
<!DOCTYPE svg PUBLIC "-//W3C//DTD SVG 1.1//EN" "http://www.w3.org/Graphics/SVG/1.1/DTD/svg11.dtd">
<svg version="1.1" id="Layer_1" xmlns="http://www.w3.org/2000/svg" xmlns:xlink="http://www.w3.org/1999/xlink" x="0px" y="0px"
	 width="86.23px" height="76px" viewBox="0 0 86.23 76" enable-background="new 0 0 86.23 76" xml:space="preserve">
<path fill="#0053A0" d="M60.166,6.893c14.581,0,19.169,13.641,19.169,19.52c0,13.292-11.658,20.521-20.345,27.87
	c-8.687,7.355-14.406,14.823-15.759,14.823h-0.234c-1.353,0-7.07-7.468-15.759-14.823C18.55,46.935,6.894,39.705,6.894,26.413
	c0-5.879,4.584-19.52,19.169-19.52c15.7,0,13.171,9.643,17.049,9.643C46.997,16.536,44.468,6.893,60.166,6.893 M60.166,0
	c-8.871,0-13.86,2.592-17.055,5.942C39.919,2.592,34.934,0,26.062,0C8.283,0,0,15.76,0,26.413c0,14.735,10.612,23.283,19.134,30.148
	c1.248,1.003,2.479,1.995,3.652,2.986c4.26,3.606,7.839,7.324,10.455,10.038C37.352,73.857,39.416,76,42.997,76h0.234
	c3.577,0,5.642-2.143,9.754-6.414c2.616-2.714,6.199-6.432,10.459-10.038c1.168-0.991,2.396-1.979,3.646-2.984
	c8.525-6.867,19.14-15.416,19.14-30.15C86.23,15.76,77.947,0,60.166,0L60.166,0z"/>
<polyline fill="none" stroke="#0053A0" stroke-width="1.9873" stroke-linecap="round" stroke-linejoin="round" stroke-miterlimit="10" points="
	6.77,38.082 30.132,38.082 34.498,18.572 40.177,52.459 45.085,29.868 50.349,45.527 53.942,22.39 56.547,38.082 78.433,38.082 "/>
</svg>
