<?xml version="1.0" encoding="utf-8"?>
<!-- Generator: Adobe Illustrator 16.0.0, SVG Export Plug-In . SVG Version: 6.00 Build 0)  -->
<!DOCTYPE svg PUBLIC "-//W3C//DTD SVG 1.1//EN" "http://www.w3.org/Graphics/SVG/1.1/DTD/svg11.dtd">
<svg version="1.1" id="Layer_1" xmlns="http://www.w3.org/2000/svg" xmlns:xlink="http://www.w3.org/1999/xlink" x="0px" y="0px"
	 width="105.22px" height="79px" viewBox="0 0 105.22 79" enable-background="new 0 0 105.22 79" xml:space="preserve">
<path fill="#0053A0" d="M96.845,13.473l-5.013-10c-0.64-1.277-2.193-1.792-3.469-1.152L77.834,7.599L74.74,1.427
	c-0.64-1.276-2.195-1.792-3.471-1.153L58.431,6.71c-1.275,0.64-1.794,2.193-1.152,3.47l9.264,18.481L35.591,44.175l-9.264-18.481
	c-0.64-1.276-2.194-1.793-3.471-1.154l-12.839,6.437c-1.275,0.639-1.794,2.194-1.154,3.47l3.094,6.171L1.428,45.895
	c-1.276,0.64-1.793,2.193-1.153,3.47l5.013,9.999c-1.702,0.853-2.392,2.925-1.537,4.626c0.852,1.702,2.924,2.39,4.625,1.538
	l5.013,10c0.64,1.276,2.193,1.792,3.469,1.152l10.529-5.277l3.094,6.172c0.64,1.277,2.194,1.792,3.471,1.152l12.84-6.436
	c1.276-0.64,1.793-2.192,1.153-3.469L38.68,50.338l30.95-15.513l9.264,18.482c0.64,1.277,2.193,1.792,3.47,1.153l12.84-6.437
	c1.276-0.64,1.793-2.193,1.153-3.47l-3.094-6.172l10.529-5.277c1.276-0.64,1.793-2.193,1.153-3.47l-5.013-10
	c1.703-0.853,2.391-2.924,1.538-4.626C100.616,13.309,98.548,12.619,96.845,13.473z M16.852,70.899l-3.854-7.688l-3.089-6.163
	l-3.854-7.688l8.218-4.119l3.854,7.688l3.089,6.164l3.853,7.688L16.852,70.899z M42.164,68.826l-8.219,4.119l-3.094-6.171l-5.013-10
	l-3.088-6.164l-5.013-9.999l-3.094-6.171l8.219-4.119l8.106,16.17l3.088,6.164L42.164,68.826z M90.576,44.56l-8.219,4.119
	l-8.105-16.17l-3.089-6.164l-8.105-16.17l8.219-4.119l3.094,6.171l5.012,10l3.089,6.164l5.012,9.999L90.576,44.56z M99.165,29.641
	l-8.22,4.12l-3.853-7.688l-3.089-6.164l-3.854-7.688l8.219-4.12l3.854,7.688l3.088,6.164L99.165,29.641z"/>
</svg>
