<?xml version="1.0" encoding="utf-8"?>
<!-- Generator: Adobe Illustrator 16.0.0, SVG Export Plug-In . SVG Version: 6.00 Build 0)  -->
<!DOCTYPE svg PUBLIC "-//W3C//DTD SVG 1.1//EN" "http://www.w3.org/Graphics/SVG/1.1/DTD/svg11.dtd">
<svg version="1.1" id="Layer_1" xmlns="http://www.w3.org/2000/svg" xmlns:xlink="http://www.w3.org/1999/xlink" x="0px" y="0px"
	 width="136.948px" height="69px" viewBox="0 0 136.948 69" enable-background="new 0 0 136.948 69" xml:space="preserve">
<path fill="#0053A0" d="M116.016,27.132c-0.47,0-0.934,0.068-1.401,0.099c-1.237-10.373-10.072-18.445-20.771-18.445
	c-5.121,0-10.042,1.925-13.832,5.26c-1.019-1.385-2.132-2.708-3.362-3.939C70.133,3.589,61.469,0,52.255,0
	C43.039,0,34.376,3.589,27.86,10.106c-4.753,4.754-7.939,10.662-9.323,17.173C8.121,28.475,0,37.334,0,48.066
	C0,59.609,9.392,69,20.935,69h95.081c11.543,0,20.933-9.391,20.933-20.934S127.559,27.132,116.016,27.132z M116.016,62.644H20.935
	c-8.038,0-14.578-6.54-14.578-14.578s6.54-14.578,14.578-14.578c8.037,0,14.575,6.54,14.575,14.578c0,1.756,1.424,3.178,3.179,3.178
	c1.754,0,3.178-1.422,3.178-3.178c0-10.154-7.267-18.634-16.869-20.532c1.239-4.885,3.743-9.318,7.357-12.934
	c5.315-5.316,12.384-8.244,19.9-8.244c7.518,0,14.584,2.928,19.899,8.245c1.866,1.865,3.422,3.94,4.672,6.158
	c0.004,0.007,0.006,0.013,0.011,0.021c3.463,6.158,4.498,13.437,2.725,20.558c-0.426,1.704,0.612,3.429,2.315,3.853
	c0.257,0.064,0.515,0.095,0.77,0.095c1.426,0,2.721-0.965,3.081-2.411c1.959-7.865,1.021-16.11-2.386-23.259
	c2.735-2.86,6.468-4.474,10.501-4.474c7.67,0,13.962,5.959,14.521,13.49c-3.246,1.277-6.143,3.299-8.41,6.011
	c-1.128,1.347-0.948,3.351,0.399,4.478c1.343,1.124,3.352,0.944,4.475-0.399c1.864-2.229,4.311-3.835,7.075-4.646
	c1.328-0.389,2.712-0.587,4.113-0.587c8.038,0,14.576,6.54,14.576,14.578S124.054,62.644,116.016,62.644z"/>
</svg>
