<?xml version="1.0" encoding="utf-8"?>
<!-- Generator: Adobe Illustrator 16.0.0, SVG Export Plug-In . SVG Version: 6.00 Build 0)  -->
<!DOCTYPE svg PUBLIC "-//W3C//DTD SVG 1.1//EN" "http://www.w3.org/Graphics/SVG/1.1/DTD/svg11.dtd">
<svg version="1.1" id="Layer_1" xmlns="http://www.w3.org/2000/svg" xmlns:xlink="http://www.w3.org/1999/xlink" x="0px" y="0px"
	 width="97.948px" height="86px" viewBox="0 0 97.948 86" enable-background="new 0 0 97.948 86" xml:space="preserve">
<path fill="#007054" d="M7.184,29.383c0.94,0,2.178,0.842,2.425,2.325c0.248,1.485,3.268,19.057,3.466,19.997
	c0.197,0.94,0.594,1.436,1.385,2.179c0.792,0.743,5.346,5.396,5.791,5.79c0.255,0.227,0.801,0.535,1.221,0.535
	c0.316,0,0.561-0.174,0.561-0.682c0-0.743-0.296-0.99-0.594-1.485c-0.297-0.495-5.643-9.06-6.137-9.9
	c-0.496-0.841-0.991-1.633-0.991-2.524c0-0.89,0.892-3.019,3.02-3.019c1.386,0,2.128,0.841,2.574,1.386
	c0.445,0.543,9.948,11.731,11.533,13.414c1.583,1.683,6.335,7.523,6.335,12.473c0,4.95,0,9.355,0,10.148
	c0,0.791-0.346,1.534-1.385,1.534s-12.078,0-12.078,0c-1.287,0-1.881-0.595-1.881-1.732c0-1.14,0-3.861,0-4.899
	c0-1.041-0.297-1.536-1.139-2.526c-0.841-0.99-10.988-13.166-12.324-14.899c-1.337-1.731-2.227-2.919-2.723-7.572
	c-0.495-4.654-1.583-15.69-1.782-17.721C4.263,30.174,6.243,29.383,7.184,29.383 M7.184,24.936c-1.561,0-3.808,0.638-5.434,2.43
	c-1.298,1.432-1.908,3.303-1.715,5.27c0.153,1.559,1.278,12.98,1.786,17.759c0.589,5.531,1.818,7.479,3.625,9.82
	C6.882,62.078,17.122,74.357,17.9,75.273c0.028,0.033,0.055,0.065,0.081,0.096v4.452c0,3.639,2.603,6.179,6.328,6.179h12.078
	c3.325,0,5.833-2.57,5.833-5.98V69.871c0-7.293-6.772-14.7-7.545-15.521c-1.483-1.575-10.874-12.629-11.332-13.186
	c-1.635-1.998-3.659-3.013-6.013-3.013c-0.739,0-1.425,0.1-2.058,0.28c-0.625-3.628-1.169-6.803-1.277-7.455
	C13.421,27.533,10.494,24.936,7.184,24.936L7.184,24.936z"/>
<path fill="#007054" d="M90.764,29.383c0.941,0,2.921,0.791,2.723,2.82c-0.198,2.031-1.287,13.068-1.782,17.722
	c-0.496,4.652-1.386,5.84-2.723,7.572C87.646,59.23,77.5,71.405,76.659,72.396c-0.842,0.99-1.139,1.485-1.139,2.526
	c0,1.038,0,3.76,0,4.899c0,1.138-0.594,1.732-1.881,1.732c0,0-11.039,0-12.078,0s-1.386-0.743-1.386-1.534c0-0.793,0-5.198,0-10.148
	c0-4.949,4.753-10.79,6.336-12.473s11.087-12.87,11.533-13.414c0.446-0.545,1.188-1.386,2.574-1.386c2.128,0,3.02,2.129,3.02,3.019
	c0,0.891-0.495,1.684-0.991,2.524c-0.495,0.841-5.841,9.406-6.137,9.9c-0.297,0.495-0.594,0.743-0.594,1.485
	c0,0.508,0.245,0.682,0.561,0.682c0.42,0,0.966-0.308,1.221-0.535c0.445-0.395,4.999-5.048,5.791-5.79
	c0.792-0.743,1.188-1.239,1.385-2.179c0.198-0.94,3.218-18.512,3.466-19.997C88.587,30.225,89.824,29.383,90.764,29.383
	 M90.764,24.936c-3.31,0-6.237,2.597-6.811,6.043c-0.108,0.65-0.652,3.825-1.277,7.453c-0.633-0.18-1.319-0.28-2.058-0.28
	c-2.354,0-4.377,1.016-6.016,3.018c-0.455,0.551-9.841,11.6-11.329,13.182c-0.773,0.821-7.546,8.228-7.546,15.521V80.02
	c0,3.41,2.508,5.98,5.833,5.98h12.078c3.726,0,6.328-2.54,6.328-6.179v-4.452c0.025-0.029,0.052-0.061,0.078-0.092
	c0.779-0.917,11.007-13.184,12.458-15.064c1.805-2.339,3.035-4.287,3.624-9.817c0.514-4.834,1.634-16.211,1.786-17.761
	c0.192-1.966-0.417-3.837-1.715-5.268C94.573,25.574,92.326,24.936,90.764,24.936L90.764,24.936z"/>
<path fill="#007054" d="M59.972,4.447c9.406,0,12.364,8.798,12.364,12.59c0,8.573-7.519,13.236-13.123,17.976
	c-5.603,4.743-9.291,9.559-10.164,9.559h-0.151c-0.873,0-4.561-4.816-10.164-9.559c-5.603-4.74-13.123-9.403-13.123-17.976
	c0-3.792,2.958-12.59,12.365-12.59c10.125,0,8.495,6.219,10.997,6.219C51.478,10.666,49.846,4.447,59.972,4.447 M59.972,0
	c-5.721,0-8.938,1.671-10.998,3.834C46.914,1.671,43.697,0,37.977,0C26.509,0,21.165,10.166,21.165,17.037
	c0,9.502,6.845,15.016,12.343,19.444c0.805,0.649,1.598,1.287,2.354,1.927c2.748,2.325,5.057,4.724,6.744,6.474
	c2.652,2.754,3.984,4.137,6.292,4.137h0.151c2.308,0,3.64-1.382,6.292-4.137c1.687-1.75,3.996-4.149,6.745-6.475
	c0.755-0.639,1.548-1.276,2.352-1.924c5.5-4.43,12.345-9.942,12.345-19.446C76.783,10.166,71.44,0,59.972,0L59.972,0z"/>
</svg>
