<?xml version="1.0" encoding="utf-8"?>
<!-- Generator: Adobe Illustrator 16.0.0, SVG Export Plug-In . SVG Version: 6.00 Build 0)  -->
<!DOCTYPE svg PUBLIC "-//W3C//DTD SVG 1.1//EN" "http://www.w3.org/Graphics/SVG/1.1/DTD/svg11.dtd">
<svg version="1.1" id="Layer_1" xmlns="http://www.w3.org/2000/svg" xmlns:xlink="http://www.w3.org/1999/xlink" x="0px" y="0px"
	 width="76px" height="76px" viewBox="0 0 76 76" enable-background="new 0 0 76 76" xml:space="preserve">
<g>
	<g>
		<path fill="#0053A0" d="M30.194,63.676c-6.998,0-10.682-3.602-11.057-7.875c-0.047-0.546,0.081-0.628,0.335-0.713
			c2.216-0.835,3.977-1.422,6.152-2.18c0.252-0.081,0.381,0,0.381,0.546c0.083,2.766,1.631,4.608,4.523,4.608
			c2.346,0,4.398-1.128,4.398-4.147c0-3.1-2.639-4.689-6.33-4.734c-0.04,0-0.081-0.334-0.081-0.627c0-0.293,0.041-0.588,0.13-0.588
			c2.721-0.293,5.15-1.967,5.15-4.689c0-1.885-1.173-3.854-3.732-3.854c-2.591,0-3.724,1.76-4.269,4.274
			c-0.084,0.416-0.377,0.586-0.67,0.501c-1.506-0.546-3.56-1.381-5.237-1.968c-0.293-0.086-0.416-0.42-0.335-0.713
			c1.72-5.153,5.278-7.541,11.269-7.541c5.988,0,10.259,2.766,10.259,7.708c0,2.639-1.671,5.279-3.978,6.156
			c2.511,0.463,5.281,2.265,5.281,6.913C42.385,60.409,38.065,63.676,30.194,63.676z"/>
	</g>
	<g>
		<path fill="#0053A0" d="M53.87,62.963c-2.6,0-3.268,0-5.867,0c-0.497,0-0.709-0.167-0.709-0.586c0-4.105,0-18.597,0-19.811
			c0-1.3-0.21-2.889-0.545-4.86c-0.082-0.375,0.423-0.753,1.052-1.046c1.587-0.754,3.852-1.674,6.069-2.555
			c0.464-0.167,0.757-0.082,0.757,0.586v27.687C54.627,62.963,54.58,62.963,53.87,62.963z"/>
	</g>
</g>
<path fill="#0053A0" d="M73.22,0H2.78C1.245,0,0,1.245,0,2.78V73.22C0,74.755,1.245,76,2.78,76H73.22c1.535,0,2.78-1.245,2.78-2.78
	V2.78C76,1.245,74.755,0,73.22,0z M70.439,5.561v15.754H5.561V5.561H70.439z M5.561,70.439V26.876h64.879v43.562H5.561z"/>
</svg>
