<?xml version="1.0" encoding="utf-8"?>
<!-- Generator: Adobe Illustrator 16.0.0, SVG Export Plug-In . SVG Version: 6.00 Build 0)  -->
<!DOCTYPE svg PUBLIC "-//W3C//DTD SVG 1.1//EN" "http://www.w3.org/Graphics/SVG/1.1/DTD/svg11.dtd">
<svg version="1.1" id="Layer_1" xmlns="http://www.w3.org/2000/svg" xmlns:xlink="http://www.w3.org/1999/xlink" x="0px" y="0px"
	 width="95.147px" height="95.847px" viewBox="0 0 95.147 95.847" enable-background="new 0 0 95.147 95.847" xml:space="preserve">
<line fill="none" stroke="#0053A0" stroke-width="7.8981" stroke-linecap="round" stroke-linejoin="round" stroke-miterlimit="10" x1="56.925" y1="38.224" x2="86.849" y2="8.298"/>
<polyline fill="none" stroke="#0053A0" stroke-width="7.8981" stroke-linecap="round" stroke-linejoin="round" stroke-miterlimit="10" points="
	58.541,3.949 91.198,3.952 91.198,36.607 "/>
<polyline fill="none" stroke="#0053A0" stroke-width="2.2328" stroke-linecap="round" stroke-linejoin="round" stroke-miterlimit="10" points="
	3.719,63.843 20.79,63.843 25.696,41.923 32.076,79.997 37.591,54.615 43.504,72.21 47.542,46.213 50.469,63.843 65.495,63.843 "/>
<g>
	<path fill="#0053A0" d="M34.8,34.153c14.857,0,26.9,12.043,26.9,26.898c0,14.854-12.043,26.897-26.9,26.897
		c-14.856,0-26.901-12.043-26.901-26.897C7.898,46.196,19.943,34.153,34.8,34.153 M34.8,26.255C15.611,26.255,0,41.864,0,61.051
		c0,19.187,15.611,34.796,34.8,34.796c19.188,0,34.799-15.609,34.799-34.796C69.599,41.864,53.987,26.255,34.8,26.255L34.8,26.255z"
		/>
</g>
</svg>
