<?xml version="1.0" encoding="utf-8"?>
<!-- Generator: Adobe Illustrator 16.0.0, SVG Export Plug-In . SVG Version: 6.00 Build 0)  -->
<!DOCTYPE svg PUBLIC "-//W3C//DTD SVG 1.1//EN" "http://www.w3.org/Graphics/SVG/1.1/DTD/svg11.dtd">
<svg version="1.1" id="Layer_1" xmlns="http://www.w3.org/2000/svg" xmlns:xlink="http://www.w3.org/1999/xlink" x="0px" y="0px"
	 width="80.389px" height="84.001px" viewBox="0 0 80.389 84.001" enable-background="new 0 0 80.389 84.001" xml:space="preserve">
<path fill="none" d="M32.984,43.228C16.888,46.514,4.696,60.525,4.218,77.421c4.316,1.389,23.73,2.37,35.977,2.372
	c12.246-0.002,31.66-0.983,35.976-2.372c-0.477-16.886-12.654-30.889-28.691-34.188c-2.272,0.787-4.701,1.234-7.238,1.234
	C37.698,44.468,35.262,44.019,32.984,43.228z M51.5,56.032c1.568,0,2.594,0.395,3.302,0.936c0.708-0.541,1.734-0.936,3.302-0.936
	c3.869,0,5.671,3.426,5.671,5.738c0,3.153-2.279,4.988-3.942,6.328c-0.236,0.191-0.469,0.379-0.691,0.566
	c-0.802,0.677-1.483,1.385-1.98,1.901c-0.83,0.861-1.378,1.432-2.383,1.432c-0.959,0-1.508-0.57-2.337-1.432
	c-0.498-0.517-1.179-1.225-1.979-1.901c-0.223-0.188-0.456-0.375-0.692-0.566c-1.664-1.34-3.942-3.175-3.942-6.328
	C45.827,59.458,47.629,56.032,51.5,56.032z"/>
<path fill="none" d="M51.726,67.169c1.683,1.423,2.79,2.87,3.052,2.87h0.046c0.262,0,1.369-1.447,3.052-2.87
	c1.682-1.422,3.939-2.824,3.939-5.398c0-1.138-0.888-3.778-3.712-3.778c-3.042,0-2.551,1.865-3.302,1.865
	c-0.751,0-0.261-1.865-3.302-1.865c-2.825,0-3.713,2.641-3.713,3.778C47.787,64.345,50.044,65.747,51.726,67.169z"/>
<path fill="#007054" d="M49.77,68.099c0.236,0.191,0.469,0.379,0.692,0.566c0.801,0.677,1.482,1.385,1.979,1.901
	c0.83,0.861,1.378,1.432,2.337,1.432c1.004,0,1.553-0.57,2.383-1.432c0.498-0.517,1.179-1.225,1.98-1.901
	c0.222-0.188,0.455-0.375,0.691-0.566c1.664-1.34,3.942-3.175,3.942-6.328c0-2.312-1.802-5.738-5.671-5.738
	c-1.568,0-2.595,0.395-3.302,0.936c-0.708-0.541-1.734-0.936-3.302-0.936c-3.87,0-5.672,3.426-5.672,5.738
	C45.827,64.924,48.106,66.759,49.77,68.099z M51.5,57.992c3.041,0,2.55,1.865,3.302,1.865c0.751,0,0.261-1.865,3.302-1.865
	c2.824,0,3.712,2.641,3.712,3.778c0,2.574-2.258,3.977-3.939,5.398c-1.683,1.423-2.79,2.87-3.052,2.87h-0.046
	c-0.262,0-1.369-1.447-3.052-2.87c-1.682-1.422-3.939-2.824-3.939-5.398C47.787,60.633,48.674,57.992,51.5,57.992z"/>
<path fill="#007054" d="M52.998,40.417c5.723-4.027,9.479-10.669,9.479-18.183C62.477,9.975,52.502,0,40.242,0
	c-12.26,0-22.234,9.975-22.234,22.234c0,7.494,3.739,14.121,9.437,18.15C11.52,45.722,0,60.751,0,78.448
	c0,2.445,1.676,3.712,16.989,4.747c8.117,0.549,17.666,0.8,23.158,0.804c0.031,0.002,0.064,0.002,0.095,0
	c5.493-0.004,15.042-0.255,23.158-0.804c15.313-1.035,16.989-2.302,16.989-4.747C80.389,60.783,68.911,45.778,52.998,40.417z
	 M22.212,22.234c0-9.958,8.073-18.03,18.03-18.03c9.958,0,18.03,8.072,18.03,18.03c0,7.542-4.637,13.996-11.212,16.687
	c-2.105,0.861-4.404,1.344-6.818,1.344c-2.43,0-4.744-0.488-6.859-1.359C26.829,36.206,22.212,29.762,22.212,22.234z M40.195,79.793
	c-12.247-0.002-31.66-0.983-35.977-2.372c0.478-16.896,12.669-30.907,28.766-34.193c2.278,0.791,4.714,1.24,7.257,1.24
	c2.537,0,4.965-0.447,7.238-1.234c16.037,3.299,28.215,17.302,28.691,34.188C71.854,78.81,52.441,79.791,40.195,79.793z"/>
</svg>
