<?xml version="1.0" encoding="utf-8"?>
<!-- Generator: Adobe Illustrator 16.0.0, SVG Export Plug-In . SVG Version: 6.00 Build 0)  -->
<!DOCTYPE svg PUBLIC "-//W3C//DTD SVG 1.1//EN" "http://www.w3.org/Graphics/SVG/1.1/DTD/svg11.dtd">
<svg version="1.1" id="Layer_1" xmlns="http://www.w3.org/2000/svg" xmlns:xlink="http://www.w3.org/1999/xlink" x="0px" y="0px"
	 width="63.493px" height="82px" viewBox="0 0 63.493 82" enable-background="new 0 0 63.493 82" xml:space="preserve">
<path fill="#007054" d="M63.493,7.118c0-0.25-0.042-0.486-0.103-0.717c0.06-0.502-0.006-1.025-0.234-1.517
	c-0.655-1.413-2.332-2.031-3.744-1.373c-8.807,4.082-17.758,2.012-27.232-0.179c-8.656-2.001-17.575-4.05-26.685-1.367
	C5.13,0.828,4.078,0,2.82,0C1.262,0,0,1.262,0,2.82v76.36C0,80.738,1.262,82,2.82,82s2.82-1.262,2.82-2.82V51.56
	c8.173-2.964,16.489-1.053,25.269,0.978c5.701,1.318,11.51,2.661,17.414,2.661c4.438,0,8.927-0.759,13.461-2.86
	c1.118-0.519,1.725-1.677,1.608-2.838c0.06-0.228,0.101-0.463,0.101-0.708V7.118z M32.179,47.042c-8.61-1.99-17.48-4.03-26.54-1.412
	V7.849c8.173-2.965,16.489-1.053,25.269,0.979c5.701,1.318,11.51,2.661,17.414,2.661c3.151,0,6.33-0.395,9.531-1.369v37.756
	C49.547,51.055,41.095,49.104,32.179,47.042z"/>
</svg>
