<?xml version="1.0" encoding="utf-8"?>
<!-- Generator: Adobe Illustrator 16.0.0, SVG Export Plug-In . SVG Version: 6.00 Build 0)  -->
<!DOCTYPE svg PUBLIC "-//W3C//DTD SVG 1.1//EN" "http://www.w3.org/Graphics/SVG/1.1/DTD/svg11.dtd">
<svg version="1.1" id="Layer_1" xmlns="http://www.w3.org/2000/svg" xmlns:xlink="http://www.w3.org/1999/xlink" x="0px" y="0px"
	 width="78.475px" height="82px" viewBox="0 0 78.475 82" enable-background="new 0 0 78.475 82" xml:space="preserve">
<path fill="#0053A0" d="M56.718,54.697c-1.529,0-2.532,0.385-3.224,0.915c-0.69-0.53-1.692-0.915-3.222-0.915
	c-3.778,0-5.538,3.343-5.538,5.604c0,3.078,2.227,4.867,3.85,6.175c0.229,0.187,0.457,0.369,0.674,0.553
	c0.783,0.661,1.448,1.353,1.934,1.856c0.809,0.841,1.347,1.397,2.28,1.397c0.982,0,1.517-0.557,2.327-1.397
	c0.486-0.504,1.151-1.195,1.934-1.856c0.217-0.184,0.442-0.366,0.674-0.553c1.625-1.308,3.849-3.097,3.849-6.175
	C62.255,58.04,60.495,54.697,56.718,54.697z"/>
<path fill="#0053A0" d="M51.735,39.456c5.586-3.935,9.253-10.415,9.253-17.752C60.988,9.738,51.251,0,39.284,0
	C27.315,0,17.578,9.738,17.578,21.704c0,7.317,3.647,13.784,9.212,17.718C11.244,44.633,0,59.303,0,76.58
	c0,2.388,1.637,3.624,16.584,4.633c7.924,0.537,17.246,0.78,22.606,0.784c0.032,0.004,0.065,0.004,0.094,0
	c5.36-0.004,14.681-0.247,22.604-0.784c14.949-1.009,16.586-2.245,16.586-4.633C78.475,59.337,67.268,44.689,51.735,39.456z
	 M21.682,21.704c0-9.721,7.882-17.599,17.603-17.599c9.72,0,17.599,7.878,17.599,17.599c0,7.362-4.526,13.665-10.945,16.291
	c-2.055,0.84-4.298,1.311-6.653,1.311c-2.372,0-4.633-0.478-6.698-1.326C26.19,35.343,21.682,29.052,21.682,21.704z M39.235,77.892
	c-11.954,0-30.905-0.96-35.118-2.316c0.467-16.492,12.368-30.169,28.08-33.378c2.225,0.773,4.603,1.211,7.087,1.211
	c2.475,0,4.845-0.438,7.063-1.203c15.656,3.22,27.543,16.889,28.009,33.37C70.143,76.932,51.191,77.892,39.235,77.892z"/>
</svg>
