<?xml version="1.0" encoding="utf-8"?>
<!-- Generator: Adobe Illustrator 16.0.0, SVG Export Plug-In . SVG Version: 6.00 Build 0)  -->
<!DOCTYPE svg PUBLIC "-//W3C//DTD SVG 1.1//EN" "http://www.w3.org/Graphics/SVG/1.1/DTD/svg11.dtd">
<svg version="1.1" id="Layer_1" xmlns="http://www.w3.org/2000/svg" xmlns:xlink="http://www.w3.org/1999/xlink" x="0px" y="0px"
	 width="75.1px" height="83px" viewBox="0 0 75.1 83" enable-background="new 0 0 75.1 83" xml:space="preserve">
<g>
	<path fill="#0053A0" d="M72.352,22.554H54.765c0.435-0.286,0.812-0.572,1.091-0.851c3.254-3.259,3.254-8.554,0.004-11.808
		c-1.581-1.578-3.678-2.447-5.908-2.447c-1.49,0-2.903,0.42-4.159,1.147c0.004-0.081,0.019-0.172,0.019-0.247
		c0-4.601-3.744-8.346-8.347-8.348h-0.002c-4.603,0-8.348,3.746-8.348,8.35c0,0.044,0.009,0.1,0.011,0.146
		c-1.211-0.66-2.559-1.048-3.975-1.048c-2.232,0-4.329,0.87-5.906,2.447c-3.252,3.252-3.254,8.548-0.002,11.804
		c0.28,0.281,0.658,0.567,1.095,0.855H2.748C1.23,22.554,0,23.785,0,25.302v21.982v32.969c0,0.719,0.283,1.368,0.735,1.858
		C1.238,82.655,1.95,83,2.748,83h69.604c0.798,0,1.51-0.346,2.013-0.89c0.452-0.49,0.735-1.14,0.735-1.858V47.284V25.302
		C75.1,23.785,73.869,22.554,72.352,22.554z M45.993,11.836c1.093-1.093,2.525-1.641,3.958-1.641c1.435,0,2.869,0.547,3.964,1.642
		c2.185,2.186,2.186,5.731,0,7.92c-0.846,0.845-3.05,1.862-5.435,2.796h-7.163C42.458,19.07,44.497,13.332,45.993,11.836z
		 M37.462,2.748c3.093,0.002,5.601,2.508,5.601,5.601s-5.601,13.442-5.601,13.442s-5.601-10.35-5.601-13.44
		C31.861,5.255,34.369,2.748,37.462,2.748z M21.187,11.838c1.095-1.095,2.529-1.642,3.964-1.642c1.433,0,2.865,0.547,3.958,1.641
		c1.494,1.495,3.535,7.233,4.676,10.718h-7.165c-2.385-0.934-4.589-1.951-5.433-2.796C19,17.569,19,14.024,21.187,11.838z
		 M34.803,77.505H5.495V50.032h29.308V77.505z M34.803,28.049v16.487H5.495V28.049h29.157c0.05,0,0.1-0.012,0.15-0.014V28.049z
		 M69.604,77.505H40.297V50.032h29.308V77.505z M69.604,44.537H40.297V28.049v-0.014c0.051,0.002,0.101,0.014,0.152,0.014h29.155
		V44.537z"/>
</g>
</svg>
