<?xml version="1.0" encoding="utf-8"?>
<!-- Generator: Adobe Illustrator 16.0.0, SVG Export Plug-In . SVG Version: 6.00 Build 0)  -->
<!DOCTYPE svg PUBLIC "-//W3C//DTD SVG 1.1//EN" "http://www.w3.org/Graphics/SVG/1.1/DTD/svg11.dtd">
<svg version="1.1" id="Layer_1" xmlns="http://www.w3.org/2000/svg" xmlns:xlink="http://www.w3.org/1999/xlink" x="0px" y="0px"
	 width="65.269px" height="95.11px" viewBox="0 0 65.269 95.11" enable-background="new 0 0 65.269 95.11" xml:space="preserve">
<polyline fill="none" stroke="#0053A0" stroke-width="2.094" stroke-linecap="round" stroke-linejoin="round" stroke-miterlimit="10" points="
	4.213,35.053 20.223,35.053 24.823,14.495 30.807,50.202 35.979,26.397 41.524,42.899 45.312,18.519 48.056,35.053 62.147,35.053 
	"/>
<line fill="none" stroke="#0053A0" stroke-width="7.407" stroke-linecap="round" stroke-linejoin="round" stroke-miterlimit="10" x1="33.1" y1="62.57" x2="33.102" y2="91.407"/>
<line fill="none" stroke="#0053A0" stroke-width="7.407" stroke-linecap="round" stroke-linejoin="round" stroke-miterlimit="10" x1="46.88" y1="74.131" x2="19.322" y2="74.135"/>
<g>
	<path fill="#0053A0" d="M32.639,7.407c6.456,0,12.911,2.462,17.837,7.388c9.851,9.852,9.848,25.825-0.005,35.676
		c-4.927,4.926-11.384,7.39-17.839,7.39c-6.456,0-12.91-2.462-17.837-7.387c-9.853-9.852-9.851-25.824,0.004-35.677
		C19.724,9.871,26.183,7.408,32.639,7.407 M32.641,0v7.407V0c-0.001,0-0.003,0-0.003,0C23.92,0,15.725,3.396,9.562,9.559
		C3.396,15.723,0.001,23.918,0,32.635c-0.001,8.717,3.394,16.913,9.558,23.077c6.164,6.163,14.358,9.557,23.074,9.557
		c8.717,0,16.912-3.396,23.076-9.56c6.164-6.164,9.56-14.358,9.561-23.075c0.002-8.717-3.392-16.913-9.555-23.077
		C49.55,3.394,41.355,0,32.641,0L32.641,0z"/>
</g>
</svg>
