<?xml version="1.0" encoding="utf-8"?>
<!-- Generator: Adobe Illustrator 16.0.0, SVG Export Plug-In . SVG Version: 6.00 Build 0)  -->
<!DOCTYPE svg PUBLIC "-//W3C//DTD SVG 1.1//EN" "http://www.w3.org/Graphics/SVG/1.1/DTD/svg11.dtd">
<svg version="1.1" id="Layer_1" xmlns="http://www.w3.org/2000/svg" xmlns:xlink="http://www.w3.org/1999/xlink" x="0px" y="0px"
	 width="106.715px" height="74px" viewBox="0 0 106.715 74" enable-background="new 0 0 106.715 74" xml:space="preserve">
<g>
	<g>
		<path fill="#0053A0" d="M41.723,50.837c0.347,0.298,0.799,0.479,1.292,0.479c0.34,0,0.661-0.086,0.94-0.237l23.973-12.313
			c0.662-0.339,1.078-1.021,1.078-1.765s-0.416-1.426-1.078-1.765L43.955,22.921c-0.684-0.369-1.646-0.262-2.232,0.242
			c-0.074,0.063-0.143,0.131-0.207,0.205c-0.301,0.346-0.484,0.797-0.485,1.292c0,0,0,0.001,0,0.004v0c0,0.001,0,0.002,0,0.004
			v24.662c0,0.001,0,0.002,0,0.004v0c0,0.003,0,0.004,0,0.004c0.001,0.495,0.185,0.946,0.485,1.292
			C41.58,50.706,41.648,50.774,41.723,50.837z"/>
		<path fill="#0053A0" d="M104.73,0H92.934c-1.096,0-1.984,0.888-1.984,1.984v3.423H15.766V1.984C15.766,0.888,14.877,0,13.781,0
			H1.984C0.889,0,0,0.888,0,1.984v70.031C0,73.112,0.889,74,1.984,74h11.797c1.096,0,1.984-0.888,1.984-1.984v-3.423h75.184v3.423
			c0,1.096,0.889,1.984,1.984,1.984h11.797c1.096,0,1.984-0.888,1.984-1.984V1.984C106.715,0.888,105.826,0,104.73,0z
			 M13.157,68.511v1.204c0,0.776-0.631,1.405-1.406,1.405H4.016c-0.776,0-1.406-0.629-1.406-1.405v-7.212
			c0-0.759,0.606-1.371,1.359-1.396c0.017-0.001,0.03-0.01,0.047-0.01h7.095h0.641c0.017,0,0.029,0.009,0.046,0.01
			c0.754,0.025,1.36,0.636,1.36,1.396V68.511z M13.157,55.207c0,0.76-0.606,1.371-1.36,1.396c-0.017,0-0.029,0.009-0.046,0.009
			H11.11H4.016c-0.017,0-0.03-0.009-0.047-0.009c-0.753-0.026-1.359-0.637-1.359-1.396v-7.211c0-0.76,0.606-1.371,1.359-1.396
			c0.017,0,0.03-0.01,0.047-0.01h7.095h0.641c0.017,0,0.029,0.009,0.046,0.01c0.754,0.025,1.36,0.636,1.36,1.396V55.207z
			 M13.157,40.7c0,0.76-0.606,1.371-1.36,1.396c-0.017,0-0.029,0.01-0.046,0.01H11.11H4.016c-0.017,0-0.03-0.009-0.047-0.01
			C3.216,42.07,2.609,41.459,2.609,40.7v-7.211c0-0.76,0.606-1.371,1.359-1.396c0.017,0,0.03-0.009,0.047-0.009h7.095h0.641
			c0.017,0,0.029,0.009,0.046,0.009c0.754,0.026,1.36,0.637,1.36,1.396V40.7z M13.157,26.192c0,0.759-0.606,1.371-1.36,1.396
			c-0.017,0.001-0.029,0.01-0.046,0.01H11.11H4.016c-0.017,0-0.03-0.009-0.047-0.01c-0.753-0.025-1.359-0.636-1.359-1.396V18.98
			c0-0.759,0.606-1.371,1.359-1.396c0.017,0,0.03-0.009,0.047-0.009h7.095h0.641c0.017,0,0.029,0.009,0.046,0.009
			c0.754,0.026,1.36,0.637,1.36,1.396V26.192z M13.157,5.489v6.196c0,0.759-0.606,1.371-1.36,1.396
			c-0.017,0-0.029,0.009-0.046,0.009H11.11H4.016c-0.017,0-0.03-0.009-0.047-0.009c-0.753-0.026-1.359-0.637-1.359-1.396V4.473
			c0-0.776,0.63-1.405,1.406-1.405h7.735c0.775,0,1.406,0.629,1.406,1.405V5.489z M90.263,63.25H16.452v-52.5h73.811V63.25z
			 M104.105,69.715c0,0.776-0.63,1.405-1.406,1.405h-7.735c-0.775,0-1.406-0.629-1.406-1.405v-1.204v-6.008
			c0-0.759,0.606-1.371,1.36-1.396c0.017-0.001,0.029-0.01,0.046-0.01h0.641h7.095c0.017,0,0.03,0.009,0.047,0.01
			c0.753,0.025,1.359,0.636,1.359,1.396V69.715z M104.105,55.207c0,0.76-0.606,1.371-1.359,1.396c-0.017,0-0.03,0.009-0.047,0.009
			h-7.095h-0.641c-0.017,0-0.029-0.009-0.046-0.009c-0.754-0.026-1.36-0.637-1.36-1.396v-7.211c0-0.76,0.606-1.371,1.36-1.396
			c0.017,0,0.029-0.01,0.046-0.01h0.641h7.095c0.017,0,0.03,0.009,0.047,0.01c0.753,0.025,1.359,0.636,1.359,1.396V55.207z
			 M104.105,40.7c0,0.76-0.606,1.371-1.359,1.396c-0.017,0-0.03,0.01-0.047,0.01h-7.095h-0.641c-0.017,0-0.029-0.009-0.046-0.01
			c-0.754-0.025-1.36-0.636-1.36-1.396v-7.211c0-0.76,0.606-1.371,1.36-1.396c0.017,0,0.029-0.009,0.046-0.009h0.641h7.095
			c0.017,0,0.03,0.009,0.047,0.009c0.753,0.026,1.359,0.637,1.359,1.396V40.7z M104.105,26.192c0,0.759-0.606,1.371-1.359,1.396
			c-0.017,0.001-0.03,0.01-0.047,0.01h-7.095h-0.641c-0.017,0-0.029-0.009-0.046-0.01c-0.754-0.025-1.36-0.636-1.36-1.396V18.98
			c0-0.759,0.606-1.371,1.36-1.396c0.017,0,0.029-0.009,0.046-0.009h0.641h7.095c0.017,0,0.03,0.009,0.047,0.009
			c0.753,0.026,1.359,0.637,1.359,1.396V26.192z M104.105,11.685c0,0.759-0.606,1.371-1.359,1.396c-0.017,0-0.03,0.009-0.047,0.009
			h-7.095h-0.641c-0.017,0-0.029-0.009-0.046-0.009c-0.754-0.026-1.36-0.637-1.36-1.396V5.489V4.473
			c0-0.776,0.631-1.405,1.406-1.405h7.735c0.776,0,1.406,0.629,1.406,1.405V11.685z"/>
	</g>
</g>
</svg>
