<?xml version="1.0" encoding="utf-8"?>
<!-- Generator: Adobe Illustrator 16.0.0, SVG Export Plug-In . SVG Version: 6.00 Build 0)  -->
<!DOCTYPE svg PUBLIC "-//W3C//DTD SVG 1.1//EN" "http://www.w3.org/Graphics/SVG/1.1/DTD/svg11.dtd">
<svg version="1.1" id="Layer_1" xmlns="http://www.w3.org/2000/svg" xmlns:xlink="http://www.w3.org/1999/xlink" x="0px" y="0px"
	 width="105.207px" height="65px" viewBox="0 0 105.207 65" enable-background="new 0 0 105.207 65" xml:space="preserve">
<g>
	<path fill="#FFFFFF" d="M5.717,35.815c0,0.606-0.35,0.97-0.971,0.97H2.713v-1.939h2.033C5.367,34.845,5.717,35.177,5.717,35.815
		 M8.765,40.213c0-1.198-0.804-2.382-2.11-2.519c1.186-0.334,1.821-1.167,1.821-2.276c0-1.696-1.121-2.697-2.987-2.697h-5.31
		C0.044,32.721,0,32.75,0,32.874v9.917c0,0.198,0.014,0.213,0.136,0.213h5.732C7.672,43.003,8.765,41.88,8.765,40.213 M5.945,39.773
		c0,0.714-0.411,1.107-1.046,1.107H2.713v-2.229h2.186C5.504,38.651,5.945,39.122,5.945,39.773"/>
	<path fill="#FFFFFF" d="M19.382,43.003h-6.417c-0.136,0-0.136,0.015-0.136-0.137v-10.01c0-0.15,0-0.135,0.136-0.135h2.457
		c0.122,0,0.137,0.014,0.137,0.135v7.736l3.807-0.076c0.122,0,0.137,0.029,0.137,0.151v2.199
		C19.504,42.99,19.504,43.003,19.382,43.003"/>
	<path fill="#FFFFFF" d="M27.299,43.261c-2.897,0-4.292-1.639-4.292-4.14v-6.309c0-0.091,0-0.091,0.076-0.091h2.547
		c0.105,0,0.105,0,0.105,0.122v6.748c0,1.017,0.851,1.44,1.593,1.44c0.73,0,1.594-0.41,1.594-1.44v-6.765
		c0-0.091,0-0.105,0.09-0.105h2.488c0.075,0,0.075,0,0.075,0.105v6.448C31.576,41.713,30.317,43.261,27.299,43.261"/>
	<path fill="#FFFFFF" d="M43.376,43.003h-6.931c-0.152,0-0.168-0.031-0.168-0.212v-9.918c0-0.138-0.015-0.152,0.138-0.152h6.854
		c0.152,0,0.167,0.014,0.167,0.195v1.853c0,0.137-0.046,0.211-0.167,0.211l-4.338-0.045v1.713h4.249
		c0.135,0,0.152,0.032,0.152,0.213v1.85c0,0.183-0.017,0.216-0.152,0.216h-4.249v1.757l4.445-0.045c0.166,0,0.166,0,0.166,0.196
		v1.957C43.542,42.972,43.529,43.003,43.376,43.003"/>
	<path fill="#FFFFFF" d="M55.691,43.094c-0.029,0.092-0.104,0.122-0.182,0.122c-0.076,0-0.151-0.014-0.184-0.091
		c-1.196-2.716-2.061-4.641-2.061-4.641s-0.972,2.123-2.094,4.656c-0.029,0.075-0.091,0.091-0.167,0.091
		c-0.075,0-0.151-0.016-0.184-0.091c-1.454-3.731-2.273-5.766-3.853-10.147c-0.103-0.242-0.134-0.272,0.063-0.272h2.335
		c0.257,0.014,0.319,0.058,0.395,0.272c0.349,1.29,1.516,4.778,1.516,4.778s1.607-4.187,1.988-5.006
		c0.045-0.092,0.106-0.137,0.182-0.137c0.075,0,0.151,0.045,0.181,0.137c0.347,0.864,1.85,5.006,1.85,5.006s1.169-3.565,1.547-4.898
		c0.03-0.167,0.03-0.152,0.152-0.152h2.351c0.196,0,0.196,0,0.138,0.194C57.981,37.24,57.118,39.348,55.691,43.094"/>
	<path fill="#FFFFFF" d="M66.703,39.56h-2.107l1.029-2.306 M71.146,42.792c-1.666-3.35-3.806-7.704-5.186-10.405
		c-0.016-0.046-0.092-0.031-0.182-0.031c-0.093,0-0.168,0-0.185,0.031c-1.181,2.215-3.576,7.055-5.156,10.405
		c-0.06,0.152-0.045,0.212,0.077,0.212h2.517c0.198,0,0.229-0.045,0.275-0.167c0.15-0.364,0.348-0.879,0.527-1.304h3.672
		c0.153,0.38,0.38,0.939,0.562,1.349c0.047,0.107,0.105,0.122,0.182,0.122h2.835C71.223,43.003,71.237,42.989,71.146,42.792"/>
	<path fill="#FFFFFF" d="M80.599,34.935l-2.595-0.029v7.961c0,0.122-0.02,0.137-0.14,0.137h-2.502c-0.149,0-0.149,0.015-0.149-0.137
		v-7.961l-2.672,0.029c-0.108,0-0.108-0.017-0.108-0.106v-1.955c0-0.123,0-0.152,0.126-0.152h8.021c0.109,0,0.122,0.029,0.122,0.152
		v1.955C80.701,34.918,80.688,34.935,80.599,34.935"/>
	<path fill="#FFFFFF" d="M91.604,43.003h-6.929c-0.152,0-0.166-0.031-0.166-0.212v-9.918c0-0.138-0.015-0.152,0.135-0.152H91.5
		c0.153,0,0.166,0.014,0.166,0.195v1.853c0,0.137-0.044,0.211-0.166,0.211l-4.338-0.045v1.713h4.247c0.136,0,0.15,0.032,0.15,0.213
		v1.85c0,0.183-0.015,0.216-0.15,0.216h-4.247v1.757l4.442-0.045c0.169,0,0.169,0,0.169,0.196v1.957
		C91.773,42.972,91.759,43.003,91.604,43.003"/>
	<path fill="#FFFFFF" d="M101.479,36.391c0,0.879-0.455,1.485-1.273,1.516l-1.517,0.047v-2.975h1.502
		C101.071,34.979,101.479,35.586,101.479,36.391 M105.091,42.592c-0.881-1.424-1.746-2.956-2.142-3.577
		c0.928-0.44,1.411-1.424,1.411-2.821c0-1.865-1.243-3.473-3.58-3.473h-4.698c-0.046,0-0.123-0.015-0.123,0.135v10.01
		c0,0.151,0,0.137,0.123,0.137h2.484c0.106,0,0.123-0.015,0.123-0.137V40l1.743-0.03c0,0,1.108,1.743,1.624,2.731
		c0.136,0.271,0.197,0.302,0.316,0.302h2.687C105.226,43.003,105.272,42.897,105.091,42.592"/>
	<polyline fill="#FFFFFF" points="32.612,55.05 32.612,52.241 30.446,52.241 30.446,55.05 29.127,55.05 29.127,48.743 
		30.446,48.743 30.446,51.183 32.612,51.183 32.612,48.743 33.944,48.743 33.944,55.05 	"/>
	<polyline fill="#FFFFFF" points="38.262,55.05 38.262,48.743 42.234,48.743 42.046,49.777 39.569,49.777 39.569,51.229 
		41.642,51.229 41.642,52.275 39.584,52.275 39.584,53.954 42.32,53.954 42.32,55.05 	"/>
	<path fill="#FFFFFF" d="M49.397,52.525h-1.522c0.106-0.381,0.702-2.223,0.773-2.58C48.708,50.302,49.279,52.123,49.397,52.525
		 M51.658,55.05l-2.249-6.332h-1.429l-2.344,6.332h1.368l0.536-1.514h2.153l0.548,1.514H51.658z"/>
	<polyline fill="#FFFFFF" points="58.925,55.05 55.284,55.05 55.284,48.743 56.604,48.743 56.604,53.977 59.174,53.977 	"/>
	<polyline fill="#FFFFFF" points="66.278,49.801 64.563,49.801 64.563,55.05 63.244,55.05 63.244,49.801 61.507,49.801 
		61.507,48.743 66.502,48.743 	"/>
	<polyline fill="#FFFFFF" points="68.061,59.678 66.346,59.678 66.346,64.925 65.026,64.925 65.026,59.678 63.289,59.678 
		63.289,58.618 68.284,58.618 	"/>
	<polyline fill="#FFFFFF" points="73.723,55.05 73.723,52.241 71.558,52.241 71.558,55.05 70.238,55.05 70.238,48.743 
		71.558,48.743 71.558,51.183 73.723,51.183 73.723,48.743 75.057,48.743 75.057,55.05 	"/>
	<path fill="#FFFFFF" d="M23.053,22.738c0.724-0.926,4.74-5.786,9.769-5.906c9.742-0.231,7.305,7.003,13.333,7.006
		c5.197,0.001,4.757-5.795,1.865-7.938c-0.032-0.023,0.002-0.069,0.055-0.066c10.43,0.62,9.918,7.573,15.189,7.604
		c5.121,0.023,3.297-5.805,0.91-7.452c-0.034-0.025,0.012-0.063,0.069-0.059c4.598,0.348,11.896,3.525,15.151,6.461
		c0.842,0.378,0.852-0.537-0.107-1.353c0,0-10.976-10.443-27.368-10.68c-15.547-0.224-28.413,9.193-29.593,10.083
		c-0.058,0.046-0.088,0.202-0.088,0.202l0.571,2.125C22.809,22.766,22.979,22.834,23.053,22.738"/>
	<path fill="#FFFFFF" d="M31.118,12.962c-0.147,0.124,0.015,0.244,0.056,0.199c1.684-0.979,10.006-5.408,22.249-5.003
		c9.935,0.329,17.284,4.348,21.085,6.798c0.363,0.215,0.389-0.124,0.024-0.427c-0.264-0.268-5.431-5.126-10.782-7.165
		c-0.027-0.011-0.037-0.061-0.016-0.073c2.831-1.772,2.639-4.937-0.211-6.188c-2.838-1.245-10.695,2.327-13.495,3.618
		c-0.037,0.018-0.032-0.033,0.003-0.077c1.283-1.6,1.118-5.03-2.994-4.609C42.074,0.546,37.068,5.052,31.118,12.962"/>
	<polygon fill="#FFFFFF" points="12.663,64.893 12.663,58.605 16.549,58.605 16.549,59.669 13.804,59.669 13.804,61.157 
		16.181,61.157 16.181,62.221 13.804,62.221 13.804,64.893 	"/>
	<polygon fill="#FFFFFF" points="12.663,64.893 12.663,58.605 16.549,58.605 16.549,59.669 13.804,59.669 13.804,61.157 
		16.181,61.157 16.181,62.221 13.804,62.221 13.804,64.893 	"/>
	<path fill="#FFFFFF" d="M19.677,61.788c0-0.749,0.122-1.366,0.365-1.852c0.244-0.483,0.562-0.845,0.955-1.081
		c0.393-0.238,0.871-0.357,1.43-0.357c0.811,0,1.472,0.282,1.984,0.845c0.511,0.565,0.766,1.365,0.766,2.406
		c0,1.053-0.271,1.874-0.812,2.465c-0.474,0.525-1.119,0.785-1.933,0.785c-0.821,0-1.469-0.258-1.944-0.775
		C19.947,63.631,19.677,62.819,19.677,61.788 M20.856,61.745c0,0.723,0.151,1.267,0.453,1.628c0.303,0.361,0.677,0.542,1.125,0.542
		c0.449,0,0.822-0.18,1.119-0.538c0.296-0.358,0.444-0.91,0.444-1.653c0-0.729-0.144-1.269-0.432-1.616
		c-0.29-0.349-0.667-0.524-1.131-0.524c-0.467,0-0.847,0.177-1.139,0.527C21.002,60.462,20.856,61.007,20.856,61.745"/>
	<path fill="#FFFFFF" d="M19.677,61.788c0-0.749,0.122-1.366,0.365-1.852c0.244-0.483,0.562-0.845,0.955-1.081
		c0.393-0.238,0.871-0.357,1.43-0.357c0.811,0,1.472,0.282,1.984,0.845c0.511,0.565,0.766,1.365,0.766,2.406
		c0,1.053-0.271,1.874-0.812,2.465c-0.474,0.525-1.119,0.785-1.933,0.785c-0.821,0-1.469-0.258-1.944-0.775
		C19.947,63.631,19.677,62.819,19.677,61.788 M20.856,61.745c0,0.723,0.151,1.267,0.453,1.628c0.303,0.361,0.677,0.542,1.125,0.542
		c0.449,0,0.822-0.18,1.119-0.538c0.296-0.358,0.444-0.91,0.444-1.653c0-0.729-0.144-1.269-0.432-1.616
		c-0.29-0.349-0.667-0.524-1.131-0.524c-0.467,0-0.847,0.177-1.139,0.527C21.002,60.462,20.856,61.007,20.856,61.745"/>
	<path fill="#FFFFFF" d="M29.212,58.605h1.142v3.405c0,0.529,0.015,0.873,0.042,1.033c0.05,0.277,0.171,0.492,0.362,0.644
		s0.442,0.228,0.753,0.228c0.266,0,0.481-0.054,0.647-0.161c0.167-0.107,0.282-0.256,0.344-0.445
		c0.061-0.191,0.091-0.599,0.091-1.225v-3.479h1.142v3.303c0,0.843-0.049,1.453-0.148,1.83c-0.099,0.374-0.322,0.68-0.669,0.912
		C32.57,64.883,32.112,65,31.543,65c-0.591,0-1.052-0.097-1.384-0.291c-0.332-0.192-0.572-0.465-0.722-0.814
		s-0.225-0.995-0.225-1.937V58.605z"/>
	<path fill="#FFFFFF" d="M29.212,58.605h1.142v3.405c0,0.529,0.015,0.873,0.042,1.033c0.05,0.277,0.171,0.492,0.362,0.644
		s0.442,0.228,0.753,0.228c0.266,0,0.481-0.054,0.647-0.161c0.167-0.107,0.282-0.256,0.344-0.445
		c0.061-0.191,0.091-0.599,0.091-1.225v-3.479h1.142v3.303c0,0.843-0.049,1.453-0.148,1.83c-0.099,0.374-0.322,0.68-0.669,0.912
		C32.57,64.883,32.112,65,31.543,65c-0.591,0-1.052-0.097-1.384-0.291c-0.332-0.192-0.572-0.465-0.722-0.814
		s-0.225-0.995-0.225-1.937V58.605z"/>
	<polygon fill="#FFFFFF" points="38.218,64.893 38.218,58.605 39.332,58.605 41.652,62.804 41.652,58.605 42.718,58.605 
		42.718,64.893 41.567,64.893 39.284,60.793 39.284,64.893 	"/>
	<polygon fill="#FFFFFF" points="38.218,64.893 38.218,58.605 39.332,58.605 41.652,62.804 41.652,58.605 42.718,58.605 
		42.718,64.893 41.567,64.893 39.284,60.793 39.284,64.893 	"/>
	<path fill="#FFFFFF" d="M47.221,58.605h2.087c0.528,0,0.926,0.054,1.195,0.162c0.268,0.106,0.516,0.287,0.742,0.541
		c0.226,0.255,0.403,0.585,0.533,0.991c0.129,0.405,0.193,0.91,0.193,1.514c0,0.543-0.068,1.016-0.202,1.418
		c-0.135,0.4-0.307,0.719-0.515,0.953c-0.207,0.235-0.458,0.411-0.751,0.531c-0.293,0.118-0.671,0.178-1.133,0.178h-2.149V58.605z
		 M48.362,59.669v4.159h0.858c0.368,0,0.634-0.031,0.8-0.095c0.165-0.062,0.299-0.157,0.405-0.283
		c0.106-0.128,0.193-0.329,0.263-0.603c0.069-0.275,0.103-0.637,0.103-1.085c0-0.466-0.035-0.831-0.106-1.101
		c-0.07-0.269-0.181-0.479-0.331-0.634c-0.148-0.153-0.331-0.256-0.544-0.304c-0.161-0.038-0.47-0.056-0.93-0.056H48.362z"/>
	<path fill="#FFFFFF" d="M47.221,58.605h2.087c0.528,0,0.926,0.054,1.195,0.162c0.268,0.106,0.516,0.287,0.742,0.541
		c0.226,0.255,0.403,0.585,0.533,0.991c0.129,0.405,0.193,0.91,0.193,1.514c0,0.543-0.068,1.016-0.202,1.418
		c-0.135,0.4-0.307,0.719-0.515,0.953c-0.207,0.235-0.458,0.411-0.751,0.531c-0.293,0.118-0.671,0.178-1.133,0.178h-2.149V58.605z
		 M48.362,59.669v4.159h0.858c0.368,0,0.634-0.031,0.8-0.095c0.165-0.062,0.299-0.157,0.405-0.283
		c0.106-0.128,0.193-0.329,0.263-0.603c0.069-0.275,0.103-0.637,0.103-1.085c0-0.466-0.035-0.831-0.106-1.101
		c-0.07-0.269-0.181-0.479-0.331-0.634c-0.148-0.153-0.331-0.256-0.544-0.304c-0.161-0.038-0.47-0.056-0.93-0.056H48.362z"/>
	<path fill="#FFFFFF" d="M60.861,64.892h-1.24l-0.496-1.424h-2.271l-0.468,1.424h-1.217l2.207-6.287h1.214L60.861,64.892z
		 M58.755,62.405l-0.782-2.332l-0.769,2.332H58.755z"/>
	<path fill="#FFFFFF" d="M60.861,64.892h-1.24l-0.496-1.424h-2.271l-0.468,1.424h-1.217l2.207-6.287h1.214L60.861,64.892z
		 M58.755,62.405l-0.782-2.332l-0.769,2.332H58.755z"/>
	<rect x="71.638" y="58.605" fill="#FFFFFF" width="1.142" height="6.288"/>
	<rect x="71.638" y="58.605" fill="#FFFFFF" width="1.142" height="6.288"/>
	<path fill="#FFFFFF" d="M76.948,61.788c0-0.749,0.122-1.366,0.364-1.852c0.243-0.483,0.562-0.845,0.955-1.081
		c0.394-0.238,0.869-0.357,1.43-0.357c0.812,0,1.473,0.282,1.983,0.845c0.512,0.565,0.766,1.365,0.766,2.406
		c0,1.053-0.27,1.874-0.811,2.465c-0.476,0.525-1.12,0.785-1.934,0.785c-0.82,0-1.469-0.258-1.943-0.775
		C77.218,63.631,76.948,62.819,76.948,61.788 M78.126,61.745c0,0.723,0.152,1.267,0.453,1.628c0.304,0.361,0.678,0.542,1.125,0.542
		c0.45,0,0.823-0.18,1.119-0.538c0.297-0.358,0.445-0.91,0.445-1.653c0-0.729-0.146-1.269-0.433-1.616
		c-0.289-0.349-0.666-0.524-1.132-0.524c-0.468,0-0.846,0.177-1.139,0.527C78.273,60.462,78.126,61.007,78.126,61.745"/>
	<path fill="#FFFFFF" d="M76.948,61.788c0-0.749,0.122-1.366,0.364-1.852c0.243-0.483,0.562-0.845,0.955-1.081
		c0.394-0.238,0.869-0.357,1.43-0.357c0.812,0,1.473,0.282,1.983,0.845c0.512,0.565,0.766,1.365,0.766,2.406
		c0,1.053-0.27,1.874-0.811,2.465c-0.476,0.525-1.12,0.785-1.934,0.785c-0.82,0-1.469-0.258-1.943-0.775
		C77.218,63.631,76.948,62.819,76.948,61.788 M78.126,61.745c0,0.723,0.152,1.267,0.453,1.628c0.304,0.361,0.678,0.542,1.125,0.542
		c0.45,0,0.823-0.18,1.119-0.538c0.297-0.358,0.445-0.91,0.445-1.653c0-0.729-0.146-1.269-0.433-1.616
		c-0.289-0.349-0.666-0.524-1.132-0.524c-0.468,0-0.846,0.177-1.139,0.527C78.273,60.462,78.126,61.007,78.126,61.745"/>
	<polygon fill="#FFFFFF" points="86.623,64.893 86.623,58.605 87.736,58.605 90.057,62.804 90.057,58.605 91.122,58.605 
		91.122,64.893 89.972,64.893 87.689,60.793 87.689,64.893 	"/>
	<polygon fill="#FFFFFF" points="86.623,64.893 86.623,58.605 87.736,58.605 90.057,62.804 90.057,58.605 91.122,58.605 
		91.122,64.893 89.972,64.893 87.689,60.793 87.689,64.893 	"/>
</g>
</svg>
