<?xml version="1.0" encoding="utf-8"?>
<!-- Generator: Adobe Illustrator 16.0.0, SVG Export Plug-In . SVG Version: 6.00 Build 0)  -->
<!DOCTYPE svg PUBLIC "-//W3C//DTD SVG 1.1//EN" "http://www.w3.org/Graphics/SVG/1.1/DTD/svg11.dtd">
<svg version="1.1" id="Layer_1" xmlns="http://www.w3.org/2000/svg" xmlns:xlink="http://www.w3.org/1999/xlink" x="0px" y="0px"
	 width="113.3px" height="70px" viewBox="0 0 113.3 70" enable-background="new 0 0 113.3 70" xml:space="preserve">
<g>
	<path fill="#0053A0" d="M6.156,38.57c0,0.652-0.377,1.044-1.045,1.044H2.922v-2.09h2.189C5.779,37.524,6.156,37.882,6.156,38.57
		 M9.439,43.307c0-1.29-0.866-2.565-2.272-2.712c1.277-0.36,1.961-1.258,1.961-2.452c0-1.827-1.208-2.905-3.217-2.905H0.193
		C0.047,35.238,0,35.269,0,35.402v10.68c0,0.213,0.015,0.229,0.146,0.229H6.32C8.263,46.311,9.439,45.102,9.439,43.307
		 M6.402,42.832c0,0.769-0.442,1.192-1.127,1.192H2.922v-2.401h2.353C5.928,41.623,6.402,42.13,6.402,42.832"/>
	<path fill="#0053A0" d="M20.873,46.311h-6.91c-0.146,0-0.146,0.017-0.146-0.146V35.383c0-0.161,0-0.146,0.146-0.146h2.646
		c0.131,0,0.147,0.015,0.147,0.146v8.331l4.1-0.082c0.132,0,0.148,0.032,0.148,0.163v2.369
		C21.004,46.296,21.004,46.311,20.873,46.311"/>
	<path fill="#0053A0" d="M29.398,46.589c-3.12,0-4.621-1.765-4.621-4.459v-6.794c0-0.098,0-0.098,0.082-0.098h2.743
		c0.113,0,0.113,0,0.113,0.131v7.268c0,1.095,0.917,1.551,1.715,1.551c0.787,0,1.716-0.441,1.716-1.551v-7.286
		c0-0.098,0-0.113,0.097-0.113h2.68c0.081,0,0.081,0,0.081,0.113v6.943C34.005,44.922,32.649,46.589,29.398,46.589"/>
	<path fill="#0053A0" d="M46.713,46.311h-7.464c-0.164,0-0.181-0.033-0.181-0.228V35.402c0-0.149-0.017-0.164,0.148-0.164h7.382
		c0.164,0,0.18,0.015,0.18,0.21v1.994c0,0.148-0.049,0.229-0.18,0.229l-4.672-0.049v1.844h4.575c0.146,0,0.164,0.035,0.164,0.23
		v1.991c0,0.197-0.018,0.232-0.164,0.232h-4.575v1.892l4.787-0.048c0.179,0,0.179,0,0.179,0.211v2.108
		C46.892,46.277,46.877,46.311,46.713,46.311"/>
	<path fill="#0053A0" d="M59.975,46.409c-0.031,0.099-0.112,0.131-0.195,0.131s-0.163-0.015-0.197-0.099
		c-1.289-2.924-2.219-4.997-2.219-4.997s-1.047,2.287-2.255,5.015c-0.032,0.081-0.099,0.098-0.18,0.098
		c-0.08,0-0.162-0.017-0.198-0.098c-1.566-4.019-2.448-6.208-4.149-10.928c-0.111-0.261-0.144-0.293,0.069-0.293h2.514
		c0.277,0.015,0.344,0.062,0.425,0.293c0.376,1.389,1.632,5.146,1.632,5.146s1.73-4.509,2.141-5.391
		c0.048-0.099,0.114-0.148,0.196-0.148c0.081,0,0.163,0.049,0.195,0.148c0.374,0.931,1.992,5.391,1.992,5.391
		s1.259-3.84,1.665-5.275c0.033-0.18,0.033-0.164,0.164-0.164h2.532c0.211,0,0.211,0,0.147,0.209
		C62.441,40.104,61.512,42.375,59.975,46.409"/>
	<path fill="#0053A0" d="M71.833,42.603h-2.269l1.107-2.483 M76.619,46.083c-1.795-3.608-4.1-8.298-5.585-11.206
		c-0.018-0.049-0.099-0.033-0.196-0.033c-0.1,0-0.181,0-0.197,0.033c-1.272,2.385-3.853,7.597-5.553,11.206
		c-0.065,0.164-0.05,0.228,0.083,0.228h2.71c0.213,0,0.245-0.049,0.297-0.18c0.161-0.393,0.373-0.946,0.567-1.403h3.953
		c0.165,0.408,0.41,1.011,0.606,1.451c0.051,0.116,0.113,0.132,0.195,0.132h3.054C76.702,46.311,76.717,46.295,76.619,46.083"/>
	<path fill="#0053A0" d="M86.798,37.622l-2.795-0.031v8.573c0,0.131-0.02,0.146-0.149,0.146H81.16c-0.161,0-0.161,0.017-0.161-0.146
		v-8.573l-2.878,0.031c-0.116,0-0.116-0.018-0.116-0.114v-2.106c0-0.132,0-0.164,0.136-0.164h8.638c0.118,0,0.131,0.032,0.131,0.164
		v2.106C86.909,37.604,86.896,37.622,86.798,37.622"/>
	<path fill="#0053A0" d="M98.651,46.311h-7.462c-0.163,0-0.179-0.033-0.179-0.228V35.402c0-0.149-0.016-0.164,0.145-0.164h7.384
		c0.165,0,0.179,0.015,0.179,0.21v1.994c0,0.148-0.048,0.229-0.179,0.229l-4.672-0.049v1.844h4.574c0.146,0,0.161,0.035,0.161,0.23
		v1.991c0,0.197-0.016,0.232-0.161,0.232h-4.574v1.892l4.784-0.048c0.182,0,0.182,0,0.182,0.211v2.108
		C98.833,46.277,98.818,46.311,98.651,46.311"/>
	<path fill="#0053A0" d="M109.286,39.19c0,0.946-0.49,1.599-1.371,1.632l-1.634,0.051V37.67h1.618
		C108.846,37.67,109.286,38.323,109.286,39.19 M113.174,45.868c-0.948-1.534-1.88-3.184-2.307-3.852
		c1-0.476,1.521-1.534,1.521-3.039c0-2.009-1.339-3.74-3.855-3.74h-5.06c-0.05,0-0.133-0.016-0.133,0.146v10.781
		c0,0.163,0,0.146,0.133,0.146h2.676c0.114,0,0.132-0.016,0.132-0.146v-3.087l1.878-0.033c0,0,1.192,1.878,1.748,2.942
		c0.146,0.291,0.213,0.324,0.341,0.324h2.894C113.32,46.311,113.371,46.196,113.174,45.868"/>
	<polyline fill="#0053A0" points="35.121,59.284 35.121,56.259 32.788,56.259 32.788,59.284 31.368,59.284 31.368,52.492 
		32.788,52.492 32.788,55.119 35.121,55.119 35.121,52.492 36.556,52.492 36.556,59.284 	"/>
	<polyline fill="#0053A0" points="41.206,59.284 41.206,52.492 45.483,52.492 45.281,53.605 42.613,53.605 42.613,55.17 
		44.845,55.17 44.845,56.296 42.629,56.296 42.629,58.104 45.575,58.104 45.575,59.284 	"/>
	<path fill="#0053A0" d="M53.197,56.564h-1.64c0.115-0.41,0.755-2.394,0.833-2.778C52.454,54.171,53.069,56.132,53.197,56.564
		 M55.632,59.284l-2.421-6.819h-1.539l-2.524,6.819h1.474l0.577-1.63h2.319l0.59,1.63H55.632z"/>
	<polyline fill="#0053A0" points="63.458,59.284 59.537,59.284 59.537,52.492 60.958,52.492 60.958,58.129 63.726,58.129 	"/>
	<polyline fill="#0053A0" points="71.376,53.632 69.53,53.632 69.53,59.284 68.109,59.284 68.109,53.632 66.238,53.632 
		66.238,52.492 71.618,52.492 	"/>
	<polyline fill="#0053A0" points="73.296,64.269 71.449,64.269 71.449,69.919 70.029,69.919 70.029,64.269 68.158,64.269 
		68.158,63.127 73.537,63.127 	"/>
	<polyline fill="#0053A0" points="79.394,59.284 79.394,56.259 77.062,56.259 77.062,59.284 75.641,59.284 75.641,52.492 
		77.062,52.492 77.062,55.119 79.394,55.119 79.394,52.492 80.83,52.492 80.83,59.284 	"/>
	<path fill="#0053A0" d="M24.826,24.486c0.779-0.997,5.104-6.231,10.52-6.36c10.492-0.249,7.867,7.542,14.359,7.544
		c5.597,0.001,5.123-6.24,2.008-8.549c-0.034-0.025,0.003-0.074,0.059-0.072c11.233,0.667,10.681,8.156,16.358,8.189
		c5.516,0.025,3.55-6.251,0.98-8.024c-0.038-0.027,0.012-0.069,0.074-0.064c4.951,0.375,12.811,3.796,16.316,6.958
		c0.907,0.407,0.917-0.578-0.115-1.457c0,0-11.82-11.247-29.473-11.502c-16.744-0.241-30.599,9.9-31.87,10.859
		c-0.062,0.049-0.095,0.217-0.095,0.217l0.614,2.289C24.563,24.516,24.746,24.59,24.826,24.486"/>
	<path fill="#006F53" d="M33.511,13.959c-0.159,0.133,0.016,0.263,0.06,0.215c1.813-1.055,10.776-5.824,23.96-5.388
		c10.699,0.354,18.613,4.683,22.707,7.321c0.392,0.232,0.419-0.133,0.027-0.46c-0.284-0.289-5.849-5.521-11.612-7.715
		c-0.03-0.012-0.04-0.066-0.018-0.079c3.05-1.909,2.843-5.316-0.227-6.665c-3.057-1.341-11.518,2.506-14.533,3.896
		c-0.04,0.02-0.035-0.036,0.003-0.083c1.381-1.723,1.203-5.417-3.224-4.963C45.311,0.587,39.919,5.44,33.511,13.959"/>
	<polygon fill="#0053A0" points="13.637,69.884 13.637,63.113 17.822,63.113 17.822,64.259 14.866,64.259 14.866,65.861 
		17.425,65.861 17.425,67.007 14.866,67.007 14.866,69.884 	"/>
	<polygon fill="#0053A0" points="13.637,69.884 13.637,63.113 17.822,63.113 17.822,64.259 14.866,64.259 14.866,65.861 
		17.425,65.861 17.425,67.007 14.866,67.007 14.866,69.884 	"/>
	<path fill="#0053A0" d="M21.19,66.54c0-0.807,0.131-1.471,0.393-1.993c0.263-0.521,0.605-0.91,1.029-1.165
		c0.423-0.256,0.938-0.385,1.54-0.385c0.873,0,1.585,0.304,2.137,0.91c0.55,0.608,0.825,1.47,0.825,2.59
		c0,1.135-0.292,2.02-0.874,2.655c-0.511,0.565-1.205,0.846-2.082,0.846c-0.884,0-1.582-0.277-2.094-0.835
		C21.481,68.525,21.19,67.65,21.19,66.54 M22.46,66.493c0,0.779,0.163,1.364,0.488,1.754c0.326,0.389,0.729,0.584,1.212,0.584
		c0.484,0,0.886-0.194,1.205-0.579c0.319-0.387,0.479-0.98,0.479-1.781c0-0.784-0.155-1.366-0.465-1.741
		c-0.312-0.375-0.718-0.563-1.218-0.563c-0.503,0-0.913,0.19-1.227,0.567C22.618,65.112,22.46,65.699,22.46,66.493"/>
	<path fill="#0053A0" d="M21.19,66.54c0-0.807,0.131-1.471,0.393-1.993c0.263-0.521,0.605-0.91,1.029-1.165
		c0.423-0.256,0.938-0.385,1.54-0.385c0.873,0,1.585,0.304,2.137,0.91c0.55,0.608,0.825,1.47,0.825,2.59
		c0,1.135-0.292,2.02-0.874,2.655c-0.511,0.565-1.205,0.846-2.082,0.846c-0.884,0-1.582-0.277-2.094-0.835
		C21.481,68.525,21.19,67.65,21.19,66.54 M22.46,66.493c0,0.779,0.163,1.364,0.488,1.754c0.326,0.389,0.729,0.584,1.212,0.584
		c0.484,0,0.886-0.194,1.205-0.579c0.319-0.387,0.479-0.98,0.479-1.781c0-0.784-0.155-1.366-0.465-1.741
		c-0.312-0.375-0.718-0.563-1.218-0.563c-0.503,0-0.913,0.19-1.227,0.567C22.618,65.112,22.46,65.699,22.46,66.493"/>
	<path fill="#0053A0" d="M31.459,63.113h1.23v3.666c0,0.57,0.016,0.941,0.045,1.113c0.054,0.299,0.184,0.53,0.39,0.693
		c0.205,0.163,0.476,0.245,0.811,0.245c0.286,0,0.519-0.058,0.698-0.174c0.18-0.116,0.304-0.275,0.37-0.48s0.099-0.644,0.099-1.318
		v-3.745h1.229v3.556c0,0.908-0.053,1.565-0.159,1.971c-0.106,0.404-0.347,0.732-0.721,0.982C35.076,69.874,34.583,70,33.969,70
		c-0.636,0-1.133-0.104-1.491-0.313c-0.357-0.207-0.616-0.5-0.777-0.877c-0.161-0.376-0.242-1.072-0.242-2.085V63.113z"/>
	<path fill="#0053A0" d="M31.459,63.113h1.23v3.666c0,0.57,0.016,0.941,0.045,1.113c0.054,0.299,0.184,0.53,0.39,0.693
		c0.205,0.163,0.476,0.245,0.811,0.245c0.286,0,0.519-0.058,0.698-0.174c0.18-0.116,0.304-0.275,0.37-0.48s0.099-0.644,0.099-1.318
		v-3.745h1.229v3.556c0,0.908-0.053,1.565-0.159,1.971c-0.106,0.404-0.347,0.732-0.721,0.982C35.076,69.874,34.583,70,33.969,70
		c-0.636,0-1.133-0.104-1.491-0.313c-0.357-0.207-0.616-0.5-0.777-0.877c-0.161-0.376-0.242-1.072-0.242-2.085V63.113z"/>
	<polygon fill="#0053A0" points="41.158,69.884 41.158,63.113 42.357,63.113 44.856,67.635 44.856,63.113 46.004,63.113 
		46.004,69.884 44.765,69.884 42.306,65.47 42.306,69.884 	"/>
	<polygon fill="#0053A0" points="41.158,69.884 41.158,63.113 42.357,63.113 44.856,67.635 44.856,63.113 46.004,63.113 
		46.004,69.884 44.765,69.884 42.306,65.47 42.306,69.884 	"/>
	<path fill="#0053A0" d="M50.853,63.113h2.248c0.569,0,0.998,0.058,1.287,0.174c0.289,0.114,0.556,0.309,0.799,0.583
		s0.434,0.63,0.574,1.067c0.139,0.437,0.208,0.98,0.208,1.63c0,0.585-0.073,1.094-0.218,1.526c-0.145,0.432-0.33,0.775-0.554,1.027
		c-0.223,0.253-0.493,0.442-0.809,0.571c-0.316,0.128-0.723,0.191-1.22,0.191h-2.314V63.113z M52.082,64.259v4.479h0.924
		c0.396,0,0.684-0.034,0.862-0.103c0.178-0.067,0.323-0.169,0.437-0.305c0.114-0.138,0.208-0.354,0.283-0.649
		c0.074-0.296,0.11-0.685,0.11-1.168c0-0.501-0.038-0.896-0.114-1.185c-0.076-0.29-0.195-0.517-0.356-0.684
		c-0.16-0.165-0.356-0.275-0.586-0.327c-0.173-0.04-0.506-0.06-1.001-0.06H52.082z"/>
	<path fill="#0053A0" d="M50.853,63.113h2.248c0.569,0,0.998,0.058,1.287,0.174c0.289,0.114,0.556,0.309,0.799,0.583
		s0.434,0.63,0.574,1.067c0.139,0.437,0.208,0.98,0.208,1.63c0,0.585-0.073,1.094-0.218,1.526c-0.145,0.432-0.33,0.775-0.554,1.027
		c-0.223,0.253-0.493,0.442-0.809,0.571c-0.316,0.128-0.723,0.191-1.22,0.191h-2.314V63.113z M52.082,64.259v4.479h0.924
		c0.396,0,0.684-0.034,0.862-0.103c0.178-0.067,0.323-0.169,0.437-0.305c0.114-0.138,0.208-0.354,0.283-0.649
		c0.074-0.296,0.11-0.685,0.11-1.168c0-0.501-0.038-0.896-0.114-1.185c-0.076-0.29-0.195-0.517-0.356-0.684
		c-0.16-0.165-0.356-0.275-0.586-0.327c-0.173-0.04-0.506-0.06-1.001-0.06H52.082z"/>
	<path fill="#0053A0" d="M65.542,69.883h-1.336l-0.533-1.533h-2.446l-0.504,1.533h-1.311l2.377-6.77h1.307L65.542,69.883z
		 M63.275,67.204l-0.843-2.511l-0.828,2.511H63.275z"/>
	<path fill="#0053A0" d="M65.542,69.883h-1.336l-0.533-1.533h-2.446l-0.504,1.533h-1.311l2.377-6.77h1.307L65.542,69.883z
		 M63.275,67.204l-0.843-2.511l-0.828,2.511H63.275z"/>
	<rect x="77.148" y="63.113" fill="#0053A0" width="1.229" height="6.771"/>
	<rect x="77.148" y="63.113" fill="#0053A0" width="1.229" height="6.771"/>
	<path fill="#0053A0" d="M82.867,66.54c0-0.807,0.132-1.471,0.394-1.993c0.262-0.521,0.605-0.91,1.028-1.165
		c0.423-0.256,0.936-0.385,1.539-0.385c0.874,0,1.586,0.304,2.136,0.91c0.551,0.608,0.825,1.47,0.825,2.59
		c0,1.135-0.291,2.02-0.873,2.655c-0.512,0.565-1.206,0.846-2.082,0.846c-0.884,0-1.582-0.277-2.094-0.835
		C83.158,68.525,82.867,67.65,82.867,66.54 M84.136,66.493c0,0.779,0.163,1.364,0.487,1.754c0.327,0.389,0.729,0.584,1.212,0.584
		c0.484,0,0.887-0.194,1.205-0.579c0.319-0.387,0.479-0.98,0.479-1.781c0-0.784-0.156-1.366-0.465-1.741
		c-0.312-0.375-0.717-0.563-1.219-0.563c-0.504,0-0.911,0.19-1.227,0.567C84.294,65.112,84.136,65.699,84.136,66.493"/>
	<path fill="#0053A0" d="M82.867,66.54c0-0.807,0.132-1.471,0.394-1.993c0.262-0.521,0.605-0.91,1.028-1.165
		c0.423-0.256,0.936-0.385,1.539-0.385c0.874,0,1.586,0.304,2.136,0.91c0.551,0.608,0.825,1.47,0.825,2.59
		c0,1.135-0.291,2.02-0.873,2.655c-0.512,0.565-1.206,0.846-2.082,0.846c-0.884,0-1.582-0.277-2.094-0.835
		C83.158,68.525,82.867,67.65,82.867,66.54 M84.136,66.493c0,0.779,0.163,1.364,0.487,1.754c0.327,0.389,0.729,0.584,1.212,0.584
		c0.484,0,0.887-0.194,1.205-0.579c0.319-0.387,0.479-0.98,0.479-1.781c0-0.784-0.156-1.366-0.465-1.741
		c-0.312-0.375-0.717-0.563-1.219-0.563c-0.504,0-0.911,0.19-1.227,0.567C84.294,65.112,84.136,65.699,84.136,66.493"/>
	<polygon fill="#0053A0" points="93.286,69.884 93.286,63.113 94.486,63.113 96.984,67.635 96.984,63.113 98.131,63.113 
		98.131,69.884 96.892,69.884 94.434,65.47 94.434,69.884 	"/>
	<polygon fill="#0053A0" points="93.286,69.884 93.286,63.113 94.486,63.113 96.984,67.635 96.984,63.113 98.131,63.113 
		98.131,69.884 96.892,69.884 94.434,65.47 94.434,69.884 	"/>
</g>
</svg>
