<?xml version="1.0" encoding="utf-8"?>
<!-- Generator: Adobe Illustrator 16.0.0, SVG Export Plug-In . SVG Version: 6.00 Build 0)  -->
<!DOCTYPE svg PUBLIC "-//W3C//DTD SVG 1.1//EN" "http://www.w3.org/Graphics/SVG/1.1/DTD/svg11.dtd">
<svg version="1.1" id="Layer_1" xmlns="http://www.w3.org/2000/svg" xmlns:xlink="http://www.w3.org/1999/xlink" x="0px" y="0px"
	 width="221.072px" height="100px" viewBox="0 0 221.072 100" enable-background="new 0 0 221.072 100" xml:space="preserve">
<g>
	<path fill="#00539F" d="M7.905,79.295h3.17c4.116,0,6.693,1.817,6.693,6.305c0,4.265-2.539,6.675-6.136,6.675H7.905V79.295z
		 M11.633,91.161c2.8,0,4.82-2.058,4.82-5.58c0-3.857-2.059-5.173-5.378-5.173H9.203v10.753H11.633z"/>
	<path fill="#00539F" d="M22.216,92.274V79.295h3.764c2.67,0,4.042,1.743,4.042,3.856c0,1.613-0.835,2.93-2.244,3.505l2.447,5.618
		h-1.408l-2.318-5.303c-0.167,0.018-0.353,0.018-0.519,0.018h-2.466v5.285H22.216z M25.979,85.767c1.946,0,2.745-1.112,2.745-2.615
		c0-1.557-0.891-2.632-2.745-2.632h-2.466v5.247H25.979z"/>
	<path fill="#00539F" d="M41.607,92.274h-6.935V79.295h6.935v1.225H35.97v4.375h4.506v1.225H35.97v4.932h5.638V92.274z"/>
	<path fill="#00539F" d="M51.617,88.14h-4.283l-1.261,4.135h-1.41l4.191-12.979h1.242l4.19,12.979h-1.391L51.617,88.14z
		 M47.668,87.027h3.614l-1.482-4.84c-0.167-0.5-0.314-1.168-0.314-1.224c-0.02,0.056-0.186,0.724-0.335,1.224L47.668,87.027z"/>
	<path fill="#00539F" d="M71.138,92.274h-1.371l-1.205-10.18c-0.056-0.371-0.094-0.741-0.094-0.834
		c-0.036,0.111-0.13,0.463-0.24,0.797l-3.615,10.217h-0.816l-3.634-10.217c-0.13-0.314-0.241-0.704-0.26-0.797
		c0,0.073-0.037,0.5-0.074,0.834l-1.187,10.18h-1.373l1.78-12.979h1.372L64,89.141l0.186,0.648c0.018-0.073,0.093-0.407,0.186-0.648
		l3.615-9.846h1.372L71.138,92.274z"/>
</g>
<g>
</g>
<g>
	<path fill="#006F53" d="M84.707,92.274v-6.379H79.96v6.379h-1.983V79.295h1.983v4.766h4.747v-4.766h1.983v12.979H84.707z"/>
	<path fill="#006F53" d="M90.414,85.785c0-3.652,2.985-6.656,6.676-6.656c3.652,0,6.655,3.004,6.655,6.656
		c0,3.689-3.003,6.675-6.655,6.675C93.399,92.46,90.414,89.475,90.414,85.785z M101.725,85.785c0-2.763-1.965-4.803-4.635-4.803
		c-2.688,0-4.654,2.059-4.654,4.803c0,2.8,1.984,4.82,4.654,4.82C99.741,90.605,101.725,88.548,101.725,85.785z"/>
	<path fill="#006F53" d="M121.839,92.274h-2.113l-1.002-8.752c-0.093-0.686-0.13-1.354-0.13-1.482
		c-0.019,0.166-0.147,0.814-0.352,1.428l-3.005,8.807h-1.557l-3.022-8.789c-0.223-0.648-0.353-1.409-0.37-1.483
		c0,0.038-0.02,0.816-0.094,1.521l-1.001,8.752h-2.096l1.78-12.979h2.317l3.022,8.826c0.13,0.389,0.223,0.908,0.223,0.964
		c0.037-0.037,0.093-0.575,0.223-0.945l3.06-8.845h2.317L121.839,92.274z"/>
	<path fill="#006F53" d="M126.1,92.274V79.295h7.417v1.799h-5.452v3.485h4.098v1.781h-4.098v4.135h5.452v1.779H126.1z"/>
</g>
<g>
</g>
<g>
	<path fill="#00539F" d="M145.064,92.274h-6.489V79.295h1.298v11.682h5.191V92.274z"/>
	<path fill="#00539F" d="M147.194,85.785c0-3.672,2.985-6.676,6.675-6.676c3.672,0,6.676,3.004,6.676,6.676
		c0,3.689-3.004,6.675-6.676,6.675C150.18,92.46,147.194,89.475,147.194,85.785z M159.247,85.785c0-3.097-2.281-5.451-5.378-5.451
		s-5.377,2.373-5.377,5.451c0,3.114,2.3,5.451,5.377,5.451C156.947,91.236,159.247,88.863,159.247,85.785z"/>
	<path fill="#00539F" d="M165.715,92.274V80.52h-2.968v-1.225h7.231v1.225h-2.967v11.755H165.715z"/>
	<path fill="#00539F" d="M175.872,92.274V80.52h-2.967v-1.225h7.231v1.225h-2.967v11.755H175.872z"/>
	<path fill="#00539F" d="M190.759,92.274h-6.935V79.295h6.935v1.225h-5.636v4.375h4.505v1.225h-4.505v4.932h5.636V92.274z"/>
	<path fill="#00539F" d="M195.393,92.274V79.295h3.764c2.67,0,4.042,1.743,4.042,3.856c0,1.613-0.834,2.93-2.243,3.505l2.447,5.618
		h-1.409l-2.317-5.303c-0.167,0.018-0.353,0.018-0.52,0.018h-2.466v5.285H195.393z M199.156,85.767c1.947,0,2.744-1.112,2.744-2.615
		c0-1.557-0.89-2.632-2.744-2.632h-2.466v5.247H199.156z"/>
	<path fill="#00539F" d="M210.13,92.274V84.82l-4.153-5.525h1.576l2.873,3.856c0.204,0.278,0.353,0.502,0.353,0.502
		s0.148-0.224,0.371-0.52l2.855-3.839h1.594l-4.172,5.545v7.435H210.13z"/>
</g>
<g>
	<rect y="98.659" fill="#00539F" width="221.072" height="1.341"/>
</g>
<g>
	<path fill="#00539F" d="M0.678,65.498v-9.082h2.089c1.402,0,2.246,0.896,2.246,2.245c0,0.7-0.312,1.193-0.817,1.53
		c1.089,0.416,1.804,1.376,1.804,2.557c0,1.518-1.064,2.75-3.414,2.75H0.678z M2.767,59.984c0.896,0,1.337-0.598,1.337-1.323
		c0-0.739-0.401-1.415-1.337-1.415h-1.18v2.738H2.767z M1.587,60.763v3.905h1.454c1.297,0,2.049-0.896,2.049-1.92
		c0-1.025-0.739-1.985-2.037-1.985H1.587z"/>
	<path fill="#00539F" d="M13.85,65.498H9.308v-9.082h0.908v8.174h3.634V65.498z"/>
	<path fill="#00539F" d="M20.985,62.67v-6.254h0.921v5.929c0,2.35-1.323,3.283-2.841,3.283c-1.519,0-2.842-0.934-2.842-3.283v-5.929
		h0.921v6.254c0,1.297,0.896,2.128,1.921,2.128C20.09,64.798,20.985,63.967,20.985,62.67z"/>
	<path fill="#00539F" d="M30.51,65.498h-4.853v-9.082h4.853v0.857h-3.944v3.061h3.153v0.856h-3.153v3.451h3.944V65.498z"/>
	<path fill="#00539F" d="M40.346,65.498h-0.869l-0.96-2.646c-0.144-0.39-0.234-0.727-0.234-0.804
		c-0.025,0.091-0.104,0.44-0.234,0.804l-0.959,2.646H36.22l-3.322-9.082h0.96l2.635,7.228c0.116,0.323,0.208,0.7,0.208,0.7
		s0.078-0.377,0.194-0.7l0.947-2.687l-1.688-4.541h0.96l0.934,2.557c0.17,0.467,0.261,0.907,0.261,0.907s0.091-0.44,0.26-0.907
		l0.921-2.557h0.922l-1.661,4.541l0.999,2.687c0.116,0.323,0.194,0.661,0.207,0.688c0.013-0.065,0.104-0.39,0.208-0.688l2.582-7.228
		h0.922L40.346,65.498z"/>
	<path fill="#00539F" d="M49.337,62.605h-2.996l-0.883,2.893h-0.986l2.934-9.082h0.869l2.933,9.082h-0.974L49.337,62.605z
		 M46.573,61.827h2.531l-1.038-3.388c-0.116-0.35-0.221-0.816-0.221-0.855c-0.013,0.039-0.13,0.506-0.234,0.855L46.573,61.827z"/>
	<path fill="#00539F" d="M53.958,65.498v-8.225h-2.076v-0.857h5.061v0.857h-2.076v8.225H53.958z"/>
	<path fill="#00539F" d="M64.572,65.498H59.72v-9.082h4.853v0.857h-3.945v3.061h3.153v0.856h-3.153v3.451h3.945V65.498z"/>
	<path fill="#00539F" d="M68.011,65.498v-9.082h2.634c1.868,0,2.829,1.22,2.829,2.698c0,1.129-0.585,2.051-1.571,2.453l1.713,3.931
		H72.63l-1.622-3.711c-0.116,0.014-0.247,0.014-0.363,0.014h-1.726v3.697H68.011z M70.645,60.944c1.362,0,1.92-0.778,1.92-1.83
		c0-1.089-0.622-1.841-1.92-1.841h-1.726v3.671H70.645z"/>
	<path fill="#00539F" d="M86.593,65.498v-4.709h-3.894v4.709h-0.908v-9.082h0.908v3.529h3.894v-3.529H87.5v9.082H86.593z"/>
	<path fill="#00539F" d="M95.909,65.498h-4.853v-9.082h4.853v0.857h-3.945v3.061h3.154v0.856h-3.154v3.451h3.945V65.498z"/>
	<path fill="#00539F" d="M103.11,62.605h-2.998l-0.882,2.893h-0.985l2.932-9.082h0.87l2.932,9.082h-0.973L103.11,62.605z
		 M100.347,61.827h2.529l-1.038-3.388c-0.116-0.35-0.22-0.816-0.22-0.855c-0.013,0.039-0.129,0.506-0.233,0.855L100.347,61.827z"/>
	<path fill="#00539F" d="M112.245,65.498h-4.541v-9.082h0.908v8.174h3.633V65.498z"/>
	<path fill="#00539F" d="M115.062,65.498v-8.225h-2.075v-0.857h5.06v0.857h-2.076v8.225H115.062z"/>
	<path fill="#00539F" d="M125.364,65.498v-4.709h-3.893v4.709h-0.908v-9.082h0.908v3.529h3.893v-3.529h0.908v9.082H125.364z"/>
	<path fill="#00539F" d="M134.967,65.498v-9.082h4.853v0.857h-3.944v3.061h3.152v0.856h-3.152v4.32L134.967,65.498z"/>
	<path fill="#00539F" d="M142.091,60.957c0-2.568,2.088-4.67,4.67-4.67c2.57,0,4.672,2.102,4.672,4.67
		c0,2.582-2.102,4.671-4.672,4.671C144.179,65.628,142.091,63.539,142.091,60.957z M150.524,60.957c0-2.166-1.596-3.814-3.764-3.814
		c-2.166,0-3.762,1.66-3.762,3.814c0,2.18,1.608,3.814,3.762,3.814C148.915,64.771,150.524,63.11,150.524,60.957z"/>
	<path fill="#00539F" d="M159.205,62.67v-6.254h0.922v5.929c0,2.35-1.324,3.283-2.842,3.283s-2.841-0.934-2.841-3.283v-5.929h0.921
		v6.254c0,1.297,0.896,2.128,1.92,2.128C158.311,64.798,159.205,63.967,159.205,62.67z"/>
	<path fill="#00539F" d="M169.457,65.498h-0.909v-2.465l-3.555-4.84c-0.13-0.143-0.221-0.324-0.233-0.351
		c0,0.026,0.026,0.261,0.026,0.441v7.214h-0.909v-9.082h0.974l3.49,4.801c0.116,0.168,0.22,0.363,0.233,0.376
		c0-0.025-0.026-0.246-0.026-0.454v-4.723h0.909V65.498z"/>
	<path fill="#00539F" d="M173.284,56.416h2.219c2.881,0,4.685,1.271,4.685,4.411c0,2.984-1.778,4.671-4.295,4.671h-2.608V56.416z
		 M175.893,64.721c1.959,0,3.373-1.44,3.373-3.906c0-2.698-1.44-3.62-3.763-3.62h-1.311v7.526H175.893z"/>
	<path fill="#00539F" d="M187.079,62.605h-2.998l-0.883,2.893h-0.985l2.933-9.082h0.869l2.932,9.082h-0.973L187.079,62.605z
		 M184.315,61.827h2.529l-1.038-3.388c-0.117-0.35-0.221-0.816-0.221-0.855c-0.013,0.039-0.129,0.506-0.233,0.855L184.315,61.827z"
		/>
	<path fill="#00539F" d="M191.697,65.498v-8.225h-2.076v-0.857h5.061v0.857h-2.076v8.225H191.697z"/>
	<path fill="#00539F" d="M196.823,65.498v-0.777h1.103v-7.526h-1.103v-0.779h3.101v0.779h-1.09v7.526h1.09v0.777H196.823z"/>
	<path fill="#00539F" d="M202.377,60.957c0-2.568,2.088-4.67,4.67-4.67c2.569,0,4.671,2.102,4.671,4.67
		c0,2.582-2.102,4.671-4.671,4.671C204.465,65.628,202.377,63.539,202.377,60.957z M210.811,60.957c0-2.166-1.597-3.814-3.764-3.814
		c-2.166,0-3.763,1.66-3.763,3.814c0,2.18,1.608,3.814,3.763,3.814C209.2,64.771,210.811,63.11,210.811,60.957z"/>
	<path fill="#00539F" d="M220.387,65.498h-0.908v-2.465l-3.556-4.84c-0.13-0.143-0.221-0.324-0.233-0.351
		c0,0.026,0.026,0.261,0.026,0.441v7.214h-0.908v-9.082h0.973l3.49,4.801c0.117,0.168,0.221,0.363,0.234,0.376
		c0-0.025-0.026-0.246-0.026-0.454v-4.723h0.908V65.498z"/>
</g>
<g>
	<rect y="72.09" fill="#00539F" width="221.072" height="1.34"/>
</g>
<g>
	<polygon fill="#00539F" points="75.897,4.167 88.399,4.167 88.201,11.509 75.897,22.422 	"/>
</g>
<g>
	<polygon fill="#00539F" points="110.028,0.199 61.413,43.06 66.572,48.815 110.228,10.318 153.882,48.815 159.042,43.06 
		110.427,0.199 110.228,0 	"/>
</g>
<g>
	<path fill="#00539F" d="M90.288,41.206c0.51-0.651,3.334-4.068,6.87-4.152c6.849-0.162,5.137,4.924,9.373,4.925
		c3.656,0.001,3.348-4.073,1.312-5.581c-0.023-0.017,0.002-0.049,0.038-0.046c7.334,0.435,6.976,5.324,10.682,5.345
		c3.601,0.018,2.316-4.08,0.64-5.238c-0.025-0.018,0.007-0.045,0.049-0.042c3.232,0.246,8.362,2.479,10.653,4.543
		c0.592,0.267,0.597-0.377-0.077-0.951c0,0-7.716-7.343-19.243-7.509c-10.932-0.157-19.978,6.463-20.808,7.09
		c-0.041,0.032-0.062,0.142-0.062,0.142l0.4,1.494C90.116,41.225,90.236,41.273,90.288,41.206"/>
</g>
<g>
	<path fill="#006F53" d="M95.96,34.333c-0.104,0.086,0.009,0.171,0.037,0.139c1.187-0.688,7.038-3.801,15.646-3.517
		c6.987,0.231,12.152,3.058,14.826,4.782c0.256,0.15,0.273-0.089,0.019-0.301c-0.188-0.189-3.821-3.606-7.583-5.04
		c-0.021-0.007-0.027-0.042-0.011-0.052c1.989-1.246,1.855-3.47-0.149-4.351c-1.995-0.875-7.52,1.635-9.487,2.545
		c-0.026,0.012-0.023-0.024,0.002-0.056c0.902-1.124,0.785-3.537-2.105-3.24C103.664,25.604,100.143,28.771,95.96,34.333"/>
</g>
</svg>
