<?xml version="1.0" encoding="utf-8"?>
<!-- Generator: Adobe Illustrator 16.0.0, SVG Export Plug-In . SVG Version: 6.00 Build 0)  -->
<!DOCTYPE svg PUBLIC "-//W3C//DTD SVG 1.1//EN" "http://www.w3.org/Graphics/SVG/1.1/DTD/svg11.dtd">
<svg version="1.1" id="Layer_1" xmlns="http://www.w3.org/2000/svg" xmlns:xlink="http://www.w3.org/1999/xlink" x="0px" y="0px"
	 width="63.021px" height="26px" viewBox="0 0 63.021 26" enable-background="new 0 0 63.021 26" xml:space="preserve">
<g>
	<path fill="#FFFFFF" d="M0.889,24.8c0.789-1.009,5.169-6.311,10.655-6.442c10.626-0.252,7.967,7.638,14.543,7.641
		c5.668,0.001,5.188-6.32,2.034-8.658c-0.035-0.026,0.003-0.076,0.06-0.073c11.377,0.676,10.818,8.26,16.567,8.293
		c5.586,0.026,3.595-6.331,0.993-8.127c-0.038-0.027,0.012-0.069,0.075-0.064c5.015,0.379,12.975,3.844,16.526,7.047
		c0.919,0.413,0.929-0.585-0.117-1.475c0,0-11.971-11.391-29.851-11.649C15.416,11.049,1.383,21.321,0.097,22.292
		C0.033,22.342,0,22.512,0,22.512l0.623,2.318C0.623,24.831,0.808,24.905,0.889,24.8"/>
	<path fill="#FFFFFF" d="M9.686,14.138c-0.161,0.135,0.016,0.266,0.061,0.217c1.837-1.068,10.914-5.899,24.268-5.457
		c10.836,0.359,18.852,4.743,22.998,7.416c0.396,0.235,0.425-0.135,0.027-0.466c-0.288-0.292-5.923-5.592-11.761-7.814
		c-0.03-0.012-0.041-0.066-0.018-0.08c3.088-1.933,2.879-5.384-0.23-6.75C41.936-0.154,33.366,3.742,30.312,5.15
		c-0.04,0.02-0.035-0.036,0.003-0.084c1.399-1.746,1.219-5.486-3.265-5.027C21.637,0.595,16.176,5.51,9.686,14.138"/>
</g>
</svg>
