<?xml version="1.0" encoding="utf-8"?>
<!-- Generator: Adobe Illustrator 16.0.0, SVG Export Plug-In . SVG Version: 6.00 Build 0)  -->
<!DOCTYPE svg PUBLIC "-//W3C//DTD SVG 1.1//EN" "http://www.w3.org/Graphics/SVG/1.1/DTD/svg11.dtd">
<svg version="1.1" id="Layer_1" xmlns="http://www.w3.org/2000/svg" xmlns:xlink="http://www.w3.org/1999/xlink" x="0px" y="0px"
	 width="31.562px" height="50px" viewBox="0 0 31.562 50" enable-background="new 0 0 31.562 50" xml:space="preserve">
<path fill="#0053A0" d="M15.781,0C7.079,0,0,7.078,0,15.779c0,1.269,0,5.129,6.834,19.645c3.286,6.979,6.618,13.147,6.652,13.208
	C13.941,49.475,14.823,50,15.781,50s1.839-0.525,2.295-1.368c0.034-0.061,3.366-6.229,6.652-13.208
	c6.834-14.516,6.834-18.376,6.834-19.645C31.562,7.078,24.482,0,15.781,0z M21.211,16.154c0.98,0.676,1.73,3.072-0.374,3.062
	c-2.167-0.014-1.956-2.872-6.244-3.126c-0.022-0.001-0.036,0.018-0.023,0.027c1.189,0.881,1.37,3.263-0.766,3.263
	c-2.479-0.001-1.477-2.974-5.481-2.88c-2.066,0.051-3.718,2.049-4.016,2.429c-0.03,0.039-0.101,0.011-0.101,0.011l-0.233-0.873
	c0,0,0.011-0.065,0.035-0.085c0.485-0.364,5.773-4.235,12.165-4.144c6.737,0.098,11.249,4.392,11.249,4.392
	c0.394,0.333,0.39,0.711,0.044,0.555c-1.338-1.207-4.338-2.512-6.228-2.656C21.216,16.128,21.197,16.144,21.211,16.154z
	 M7.624,14.913c2.446-3.253,4.503-5.106,6.543-5.315c1.69-0.172,1.758,1.237,1.231,1.894c-0.015,0.02-0.016,0.04-0.002,0.033
	c1.151-0.53,4.38-1.999,5.547-1.487c1.172,0.514,1.25,1.815,0.087,2.545c-0.009,0.003-0.005,0.025,0.006,0.028
	c2.2,0.838,4.324,2.835,4.432,2.944c0.15,0.125,0.139,0.266-0.01,0.177c-1.562-1.008-4.583-2.658-8.667-2.795
	c-5.032-0.167-8.453,1.655-9.145,2.056C7.629,15.011,7.563,14.963,7.624,14.913z"/>
<path fill="#FFFFFF" d="M27.423,18.23c0,0-4.512-4.294-11.249-4.392C9.783,13.747,4.495,17.618,4.01,17.982
	c-0.024,0.02-0.035,0.085-0.035,0.085l0.233,0.873c0,0,0.071,0.028,0.101-0.011c0.298-0.38,1.949-2.378,4.016-2.429
	c4.004-0.094,3.002,2.879,5.481,2.88c2.136,0,1.955-2.382,0.766-3.263c-0.013-0.01,0.001-0.028,0.023-0.027
	c4.288,0.254,4.076,3.112,6.244,3.126c2.104,0.01,1.354-2.387,0.374-3.062c-0.015-0.011,0.005-0.026,0.028-0.025
	c1.89,0.145,4.889,1.449,6.228,2.656C27.813,18.941,27.817,18.563,27.423,18.23z"/>
<path fill="#FFFFFF" d="M16.792,12.937c4.084,0.137,7.104,1.787,8.667,2.795c0.149,0.089,0.16-0.052,0.01-0.177
	c-0.108-0.109-2.232-2.106-4.432-2.944c-0.011-0.003-0.016-0.025-0.006-0.028c1.164-0.729,1.085-2.031-0.087-2.545
	c-1.167-0.512-4.396,0.957-5.547,1.487c-0.014,0.007-0.013-0.014,0.002-0.033c0.527-0.656,0.459-2.065-1.231-1.894
	c-2.04,0.209-4.098,2.062-6.543,5.315c-0.061,0.05,0.006,0.098,0.023,0.079C8.338,14.592,11.759,12.77,16.792,12.937z"/>
</svg>
