<?xml version="1.0" encoding="utf-8"?>
<!-- Generator: Adobe Illustrator 16.0.0, SVG Export Plug-In . SVG Version: 6.00 Build 0)  -->
<!DOCTYPE svg PUBLIC "-//W3C//DTD SVG 1.1//EN" "http://www.w3.org/Graphics/SVG/1.1/DTD/svg11.dtd">
<svg version="1.1" id="Layer_1" xmlns="http://www.w3.org/2000/svg" xmlns:xlink="http://www.w3.org/1999/xlink" x="0px" y="0px"
	 width="31.354px" height="22px" viewBox="0 0 31.354 22" enable-background="new 0 0 31.354 22" xml:space="preserve">
<g>
	<path fill="#006F53" d="M11.433,9.268c1.992,1.299,2.858,3.378,2.858,5.63c0,4.157-3.032,7.102-7.189,7.102
		C3.291,22,0,19.488,0,14.898c0-2.166,0.779-3.985,1.905-5.717L8.228,0h7.104L11.433,9.268z M27.457,9.268
		c1.992,1.299,2.858,3.378,2.858,5.63c0,4.157-3.03,7.102-7.189,7.102c-3.811,0-7.102-2.512-7.102-7.102
		c0-2.166,0.779-3.985,1.905-5.717L24.252,0h7.102L27.457,9.268z"/>
</g>
</svg>
