<?xml version="1.0" encoding="utf-8"?>
<!-- Generator: Adobe Illustrator 16.0.0, SVG Export Plug-In . SVG Version: 6.00 Build 0)  -->
<!DOCTYPE svg PUBLIC "-//W3C//DTD SVG 1.1//EN" "http://www.w3.org/Graphics/SVG/1.1/DTD/svg11.dtd">
<svg version="1.1" id="Layer_1" xmlns="http://www.w3.org/2000/svg" xmlns:xlink="http://www.w3.org/1999/xlink" x="0px" y="0px"
	 width="14.073px" height="18px" viewBox="0 0 14.073 18" enable-background="new 0 0 14.073 18" xml:space="preserve">
<g>
	<path fill="#0154A0" d="M7.914,0.005C4.381-0.131,1.405,2.624,1.27,6.157c-0.078,2.01,0.78,3.837,2.184,5.066l-1.644,2.528
		L0.779,15.34l-0.5,0.768c-0.421,0.643-0.359,1.426,0.137,1.751c0.497,0.326,1.24,0.069,1.662-0.572l1.265-1.946l1.032-1.588
		l0.912-1.403c0.664,0.266,1.382,0.425,2.137,0.454c3.534,0.135,6.509-2.62,6.645-6.153C14.204,3.115,11.448,0.141,7.914,0.005z
		 M7.482,11.252c-0.491-0.02-0.961-0.111-1.403-0.264c-0.648-0.225-1.232-0.582-1.721-1.04C3.365,9.02,2.764,7.683,2.82,6.218
		c0.103-2.679,2.357-4.765,5.034-4.662c2.678,0.103,4.765,2.357,4.662,5.034C12.414,9.268,10.16,11.354,7.482,11.252z"/>
</g>
</svg>
