<?xml version="1.0" encoding="utf-8"?>
<!-- Generator: Adobe Illustrator 16.0.0, SVG Export Plug-In . SVG Version: 6.00 Build 0)  -->
<!DOCTYPE svg PUBLIC "-//W3C//DTD SVG 1.1//EN" "http://www.w3.org/Graphics/SVG/1.1/DTD/svg11.dtd">
<svg version="1.1" id="Layer_1" xmlns="http://www.w3.org/2000/svg" xmlns:xlink="http://www.w3.org/1999/xlink" x="0px" y="0px"
	 width="27.095px" height="22px" viewBox="0 0 27.095 22" enable-background="new 0 0 27.095 22" xml:space="preserve">
<path fill="#0154A0" d="M1.891,1.003c0.976,1.445,4.236,4.155,7.145,4.995c2.907,0.84,3.883,0.822,4.316,0.831
	c-0.108-0.217-0.172-1.4-0.145-1.698c0.027-0.298,0.171-1.833,1.237-3.097C15.51,0.768,17.063,0,18.843,0s3.323,1.039,3.983,1.744
	c0.271,0.019,1.463-0.361,1.706-0.46c0.244-0.1,1.499-0.65,1.815-0.868c0,0.262-0.605,1.319-0.903,1.716
	c-0.298,0.398-1.318,1.219-1.508,1.336c0.416,0.036,1.481-0.244,1.978-0.407c0.497-0.163,1.181-0.451,1.181-0.451
	s-0.9,1.247-1.388,1.707c-0.488,0.461-1.373,1.166-1.373,1.166s0.019,2.231-0.294,3.749c-0.312,1.516-1.382,5.256-4.146,8.06
	C17.132,20.096,13.608,22,7.987,22C3.562,22,0,19.509,0,19.509s1.16,0.117,1.972,0.053C2.785,19.5,4.258,19.4,5.756,18.678
	c1.499-0.723,2.35-1.328,2.457-1.445c-0.217,0.046-1.481-0.216-1.906-0.389c-0.424-0.17-1.706-0.92-2.284-1.698
	c-0.578-0.777-0.958-1.688-0.985-1.815c0.245,0.108,0.75,0.127,1.049,0.127c0.298,0,1.083-0.063,1.444-0.199
	c-0.28-0.019-2.067-0.578-2.953-1.671c-0.886-1.093-1.48-2.176-1.48-3.838c0.36,0.252,1.634,0.677,2.52,0.668
	c-0.497-0.217-1.78-1.364-2.249-2.981C0.896,3.821,1.223,2.503,1.602,1.563C1.737,1.229,1.891,1.003,1.891,1.003z"/>
</svg>
