<?xml version="1.0" encoding="utf-8"?>
<!-- Generator: Adobe Illustrator 16.0.0, SVG Export Plug-In . SVG Version: 6.00 Build 0)  -->
<!DOCTYPE svg PUBLIC "-//W3C//DTD SVG 1.1//EN" "http://www.w3.org/Graphics/SVG/1.1/DTD/svg11.dtd">
<svg version="1.1" id="Layer_1" xmlns="http://www.w3.org/2000/svg" xmlns:xlink="http://www.w3.org/1999/xlink" x="0px" y="0px"
	 width="22px" height="22px" viewBox="0 0 22 22" enable-background="new 0 0 22 22" xml:space="preserve">
<path fill="#0053A1" d="M11,1.982c2.937,0,3.285,0.011,4.445,0.064c1.072,0.049,1.655,0.228,2.043,0.379
	c0.513,0.199,0.88,0.438,1.265,0.823C19.137,3.633,19.375,4,19.575,4.513c0.151,0.388,0.33,0.97,0.379,2.042
	c0.054,1.16,0.064,1.508,0.064,4.445c0,2.938-0.011,3.285-0.064,4.445c-0.049,1.072-0.228,1.654-0.379,2.042
	c-0.199,0.514-0.438,0.88-0.822,1.266c-0.385,0.385-0.752,0.623-1.265,0.822c-0.388,0.15-0.971,0.33-2.043,0.379
	c-1.159,0.053-1.508,0.064-4.445,0.064c-2.938,0-3.285-0.012-4.445-0.064c-1.073-0.049-1.655-0.229-2.042-0.379
	c-0.514-0.199-0.88-0.438-1.265-0.822c-0.385-0.386-0.623-0.752-0.823-1.266c-0.15-0.388-0.33-0.97-0.379-2.042
	C1.993,14.285,1.982,13.938,1.982,11c0-2.937,0.011-3.285,0.064-4.445C2.095,5.483,2.274,4.9,2.425,4.513
	C2.625,4,2.863,3.633,3.248,3.248c0.385-0.385,0.751-0.624,1.265-0.823c0.387-0.151,0.97-0.33,2.042-0.379
	C7.715,1.994,8.063,1.982,11,1.982 M11,0C8.013,0,7.638,0.013,6.465,0.066C5.294,0.12,4.494,0.306,3.794,0.578
	C3.071,0.859,2.458,1.235,1.846,1.847C1.235,2.458,0.858,3.071,0.578,3.795c-0.272,0.7-0.458,1.499-0.511,2.67
	C0.013,7.638,0,8.013,0,11s0.013,3.362,0.066,4.535c0.053,1.171,0.239,1.971,0.511,2.671c0.281,0.723,0.657,1.336,1.269,1.948
	c0.612,0.611,1.225,0.987,1.948,1.269c0.7,0.271,1.5,0.458,2.67,0.511C7.638,21.987,8.013,22,11,22c2.988,0,3.362-0.013,4.536-0.066
	c1.171-0.053,1.97-0.239,2.67-0.511c0.724-0.281,1.337-0.657,1.948-1.269c0.611-0.612,0.987-1.226,1.269-1.948
	c0.272-0.7,0.458-1.5,0.512-2.671C21.988,14.362,22,13.987,22,11s-0.013-3.362-0.066-4.535c-0.054-1.171-0.239-1.97-0.512-2.67
	c-0.281-0.724-0.657-1.337-1.269-1.948c-0.611-0.612-1.225-0.988-1.948-1.269c-0.7-0.272-1.499-0.458-2.67-0.511
	C14.362,0.013,13.988,0,11,0"/>
<path fill="#0053A1" d="M11,5.352C7.88,5.352,5.352,7.88,5.352,11c0,3.12,2.529,5.648,5.648,5.648S16.649,14.12,16.649,11
	C16.649,7.88,14.12,5.352,11,5.352 M11,14.667c-2.025,0-3.667-1.642-3.667-3.667c0-2.025,1.642-3.667,3.667-3.667
	S14.667,8.975,14.667,11C14.667,13.025,13.025,14.667,11,14.667"/>
<path fill="#0053A1" d="M18.192,5.128c0,0.729-0.591,1.32-1.32,1.32c-0.729,0-1.319-0.591-1.319-1.32s0.591-1.32,1.319-1.32
	C17.601,3.809,18.192,4.399,18.192,5.128"/>
</svg>
