<?xml version="1.0" encoding="utf-8"?>
<!-- Generator: Adobe Illustrator 16.0.0, SVG Export Plug-In . SVG Version: 6.00 Build 0)  -->
<!DOCTYPE svg PUBLIC "-//W3C//DTD SVG 1.1//EN" "http://www.w3.org/Graphics/SVG/1.1/DTD/svg11.dtd">
<svg version="1.1" id="Layer_1" xmlns="http://www.w3.org/2000/svg" xmlns:xlink="http://www.w3.org/1999/xlink" x="0px" y="0px"
	 width="28.436px" height="20px" viewBox="0 0 28.436 20" enable-background="new 0 0 28.436 20" xml:space="preserve">
<g id="Lozenge">
	<g>
		<path fill="#0154A0" d="M28.152,4.314c0,0-0.278-1.959-1.131-2.822c-1.081-1.133-2.294-1.138-2.85-1.205
			C20.192,0,14.224,0,14.224,0h-0.012c0,0-5.969,0-9.948,0.288c-0.556,0.066-1.768,0.072-2.85,1.205
			c-0.853,0.863-1.13,2.822-1.13,2.822S0,6.616,0,8.917v2.157c0,2.301,0.284,4.602,0.284,4.602s0.277,1.959,1.13,2.823
			c1.082,1.132,2.503,1.097,3.136,1.215C6.825,19.933,14.218,20,14.218,20s5.975-0.009,9.954-0.297
			c0.556-0.066,1.769-0.072,2.85-1.204c0.853-0.863,1.131-2.823,1.131-2.823s0.283-2.301,0.283-4.602V8.917
			C28.436,6.616,28.152,4.314,28.152,4.314z M11.282,13.688l-0.001-7.99l7.683,4.009L11.282,13.688z"/>
	</g>
</g>
</svg>
