<?xml version="1.0" encoding="utf-8"?>
<!-- Generator: Adobe Illustrator 16.0.0, SVG Export Plug-In . SVG Version: 6.00 Build 0)  -->
<!DOCTYPE svg PUBLIC "-//W3C//DTD SVG 1.1//EN" "http://www.w3.org/Graphics/SVG/1.1/DTD/svg11.dtd">
<svg version="1.1" id="Layer_1" xmlns="http://www.w3.org/2000/svg" xmlns:xlink="http://www.w3.org/1999/xlink" x="0px" y="0px"
	 width="20.001px" height="20px" viewBox="0 0 20.001 20" enable-background="new 0 0 20.001 20" xml:space="preserve">
<path fill="#0053A0" d="M12.083,10.001l7.487-7.488c0.575-0.575,0.575-1.507,0-2.082c-0.575-0.575-1.506-0.575-2.082,0l-7.487,7.488
	L2.513,0.432c-0.575-0.575-1.507-0.575-2.082,0c-0.575,0.574-0.575,1.507,0,2.082l7.488,7.488l-7.487,7.487
	c-0.575,0.575-0.575,1.507,0,2.082C0.72,19.857,1.096,20,1.473,20c0.377,0,0.753-0.144,1.041-0.431l7.487-7.487l7.487,7.487
	C17.775,19.857,18.152,20,18.529,20s0.753-0.144,1.041-0.431c0.575-0.574,0.575-1.507,0-2.082L12.083,10.001z"/>
</svg>
